<svg width="375" height="405" viewBox="0 0 375 405" fill="none" xmlns="http://www.w3.org/2000/svg">
<g clip-path="url(#clip0_64_2)">
<g clip-path="url(#clip1_64_2)">
<path opacity="0.1" d="M311.974 267.917C324.827 267.184 340.774 258.46 353.174 254.61C367.849 250.05 382.583 245.669 397.375 241.466C448.854 226.821 500.895 214.336 553.498 204.011C558.407 203.05 563.323 202.107 568.247 201.185C560.574 184.612 548.69 170.341 533.782 159.793C534.164 156.166 534.358 152.522 534.363 148.876C534.363 91.2168 488.284 44.4741 431.421 44.4741C413.916 44.4561 396.704 48.9725 381.462 57.5832C341.216 31.1091 288.687 15.0862 231.214 15.0862C149.546 15.0862 77.8531 47.4461 37.2288 96.1604L228.189 128.416L345.287 148.19C211.794 152.174 77.888 156.134 -55.2214 146.782C-72.7925 163.784 -83.9138 186.36 -86.6846 210.652C-89.4554 234.945 -83.7038 259.445 -70.4126 279.967C-70.4126 282.055 -70.3254 284.12 -70.1683 286.173C-66.7777 287.15 -63.5033 288.086 -60.5662 288.709C-13.4145 298.665 34.0397 307.002 81.7963 313.717C46.604 335.416 3.7464 338.481 -36.8488 347.671C-17.191 363.897 9.50417 373.877 38.9212 373.877H476.914C524.343 373.877 562.786 340.854 562.786 300.119C569.903 288.385 574.646 275.367 576.744 261.804C488.982 270.255 400.126 262.897 311.974 267.917Z" fill="#01C4D4"/>
<path opacity="0.1" d="M577.343 244.432C577.39 227.644 573.399 211.09 565.706 196.168C558.013 181.246 546.845 168.393 533.142 158.693C533.521 155.067 533.715 151.423 533.724 147.777C533.724 90.1118 487.638 43.375 430.782 43.375C413.272 43.3508 396.056 47.8654 380.811 56.4783C340.571 30.0041 288.035 13.9812 230.562 13.9812C137.048 13.9812 56.6074 56.4027 20.9208 117.243C18.9376 117.127 16.9427 117.063 14.9304 117.063C-41.9146 117.063 -88.0117 163.8 -88.0117 221.459C-88.0525 241.826 -82.1682 261.764 -71.0757 278.845C-71.0757 330.723 -22.1113 372.778 38.264 372.778H476.286C523.709 372.778 562.152 339.761 562.152 299.026C572.123 282.564 577.378 263.678 577.343 244.432Z" fill="#F2D1D1"/>
<path opacity="0.1" d="M396.601 -16C396.601 -16 352.982 6.42626 375.431 33.0051C375.431 33.0051 377.537 38.821 383.667 38.3732C383.667 38.3732 382.445 36.1399 387.156 34.366C388.817 33.7224 390.397 32.8849 391.861 31.871C393.846 30.5071 395.331 28.5323 396.09 26.247C396.09 26.247 405.034 14.3359 398.166 -7.74718C398.166 -7.74718 399.073 -13.9877 398.294 -14.9938L392.978 -7.74718C392.978 -7.74718 398.445 -4.05406 399.061 1.33731C399.061 1.33731 393.379 -7.72973 392.14 -6.70031C391.89 -6.49094 389.5 -2.73384 389.5 -2.73384C389.5 -2.73384 398.974 3.72184 399.666 12.0852C399.666 12.0852 394.339 0.366049 388.575 -1.29149L385.301 4.59423C385.301 4.59423 395.653 10.9278 396.805 20.4194C396.805 20.4194 390.814 8.36878 384.673 5.9319L382.236 12.155C382.236 12.155 392.21 18.5525 393.118 26.4331C393.118 26.4331 384.783 13.2018 381.771 13.638C381.771 13.638 379.881 19.4889 380.125 21.286C380.125 21.286 387.179 26.026 387.296 30.6613C387.296 30.6613 380.794 22.4143 379.787 22.9552C379.787 22.9552 379.351 31.2312 381.352 35.5408C381.352 35.5408 377.938 29.3876 378.491 22.9552C378.491 22.9552 375.059 25.8631 374.297 29.6726C374.297 29.6726 372.424 25.1129 378.624 20.9487C378.624 20.9487 379.206 14.5104 379.933 13.7194C379.933 13.7194 373.239 16.9647 370.389 20.9719C370.389 20.9719 371.447 14.9989 380.52 12.0503L382.847 5.73997C382.847 5.73997 373.768 9.56686 370.959 12.9459C370.959 12.9459 372.983 7.01948 383.562 4.22201L386.708 -1.59392C386.708 -1.59392 378.636 1.10467 374.699 4.18712C374.699 4.18712 377.758 -0.907641 387.674 -3.22238L390.227 -6.85735C390.227 -6.85735 384.37 -4.78106 382.742 -4.0308C381.113 -3.28054 380.776 -3.65858 380.776 -3.65858C383.752 -6.19316 387.371 -7.85395 391.233 -8.45673C391.233 -8.45673 397.003 -15.6103 396.601 -16Z" fill="#01C4D4"/>
<path opacity="0.1" d="M338.739 11.2883C338.739 11.2883 342.135 33.1911 356.733 27.3519C356.733 27.3519 359.519 27.2763 360.223 24.5835C360.223 24.5835 359.089 24.7871 358.996 22.5247C358.957 21.7209 358.825 20.9245 358.6 20.1518C358.296 19.1068 357.659 18.1897 356.786 17.5404C356.786 17.5404 352.959 12.0095 342.507 11.8059C342.507 11.8059 339.96 10.5264 339.419 10.7183L341.746 14.0276C341.746 14.0276 344.107 12.2072 346.509 12.7132C346.509 12.7132 341.81 13.8764 342.077 14.5336C342.129 14.6732 343.397 16.2319 343.397 16.2319C343.397 16.2319 347.521 13.0912 351.202 13.9811C351.202 13.9811 345.421 14.5976 343.874 16.8309L345.933 19.07C345.933 19.07 350.126 15.5339 354.36 16.3947C354.36 16.3947 348.335 17.2496 346.416 19.5353L348.742 21.4662C348.742 21.4662 352.901 18.093 356.419 18.8316C356.419 18.8316 349.556 20.524 349.306 21.8733C349.306 21.8733 351.545 23.5192 352.348 23.6646C352.348 23.6646 355.384 21.3382 357.39 21.9198C357.39 21.9198 352.93 23.5309 353.017 24.0368C353.017 24.0368 356.506 25.4036 358.635 25.1651C356.679 25.4833 354.674 25.2828 352.819 24.5835C353.296 25.7055 354.091 26.6636 355.105 27.3403C355.105 27.3403 352.883 27.4915 351.982 24.2404C351.982 24.2404 349.306 23.0772 349.074 22.6468C349.074 22.6468 349.51 25.9794 350.818 27.7765C350.818 27.7765 348.405 26.4679 348.434 22.1583L346.061 20.2681C346.061 20.2681 346.404 24.7057 347.457 26.3923C347.457 26.3923 345.2 24.6766 345.497 19.7389L343.455 17.5637C343.455 17.5637 343.455 21.4139 344.229 23.5367C344.229 23.5367 342.484 21.5011 342.897 16.9181L341.734 15.3071C341.734 15.3071 341.792 18.1104 341.879 18.9188C341.967 19.7272 341.757 19.8145 341.757 19.8145C341.103 18.172 340.917 16.3799 341.222 14.6383C341.222 14.6383 338.966 11.172 338.739 11.2883Z" fill="#01C4D4"/>
<path d="M302.942 373.412C315.857 373.412 326.327 371.641 326.327 369.457C326.327 367.273 315.857 365.502 302.942 365.502C290.026 365.502 279.556 367.273 279.556 369.457C279.556 371.641 290.026 373.412 302.942 373.412Z" fill="#01C4D4"/>
<path d="M312.613 362.978C313.681 362.109 314.458 360.934 314.841 359.611C315.132 358.279 314.562 356.674 313.282 356.185C311.851 355.639 310.322 356.633 309.164 357.634C308.007 358.634 306.675 359.774 305.163 359.564C305.942 358.856 306.525 357.959 306.855 356.959C307.186 355.96 307.252 354.892 307.047 353.859C306.981 353.431 306.8 353.029 306.524 352.696C305.727 351.847 304.291 352.207 303.337 352.876C300.313 355.005 299.469 359.111 299.452 362.81C299.149 361.478 299.405 360.088 299.399 358.739C299.394 357.389 299.016 355.831 297.858 355.115C297.144 354.731 296.342 354.543 295.532 354.568C294.177 354.516 292.659 354.65 291.734 355.644C290.571 356.883 290.879 358.954 291.879 360.297C292.88 361.641 294.409 362.513 295.817 363.449C296.943 364.121 297.903 365.037 298.626 366.131C298.713 366.283 298.783 366.445 298.835 366.613H307.361C309.268 365.644 311.035 364.421 312.613 362.978Z" fill="#01C4D4"/>
<path d="M357.03 385.678C369.945 385.678 380.416 383.907 380.416 381.723C380.416 379.539 369.945 377.768 357.03 377.768C344.114 377.768 333.644 379.539 333.644 381.723C333.644 383.907 344.114 385.678 357.03 385.678Z" fill="#01C4D4"/>
<path d="M366.701 375.256C367.769 374.386 368.546 373.211 368.929 371.888C369.22 370.551 368.65 368.951 367.37 368.463C365.939 367.916 364.41 368.905 363.253 369.911C362.095 370.917 360.763 372.051 359.251 371.842C360.03 371.134 360.613 370.237 360.944 369.237C361.274 368.237 361.34 367.169 361.136 366.136C361.07 365.708 360.889 365.306 360.612 364.973C359.815 364.124 358.379 364.485 357.425 365.153C354.401 367.282 353.557 371.388 353.54 375.087C353.237 373.755 353.493 372.365 353.488 371.016C353.482 369.667 353.104 368.108 351.946 367.393C351.233 367.009 350.43 366.82 349.62 366.846C348.265 366.794 346.747 366.927 345.822 367.922C344.659 369.161 344.967 371.231 345.968 372.575C346.968 373.918 348.497 374.785 349.905 375.727C351.031 376.398 351.991 377.315 352.714 378.408C352.801 378.561 352.871 378.723 352.923 378.891H361.45C363.355 377.919 365.121 376.697 366.701 375.256Z" fill="#01C4D4"/>
<path d="M16.7974 381.316C29.7131 381.316 40.1833 379.545 40.1833 377.361C40.1833 375.177 29.7131 373.406 16.7974 373.406C3.88172 373.406 -6.5885 375.177 -6.5885 377.361C-6.5885 379.545 3.88172 381.316 16.7974 381.316Z" fill="#01C4D4"/>
<path d="M26.4692 370.894C27.537 370.024 28.314 368.849 28.6967 367.526C28.9875 366.194 28.4176 364.589 27.1381 364.101C25.7074 363.554 24.1778 364.548 23.0204 365.549C21.863 366.549 20.5312 367.695 19.019 367.48C19.7983 366.772 20.3813 365.874 20.7115 364.875C21.0416 363.875 21.1077 362.807 20.9034 361.774C20.8372 361.346 20.6563 360.944 20.38 360.611C19.5832 359.762 18.1466 360.123 17.1928 360.791C14.1685 362.92 13.3252 367.032 13.3078 370.725C13.0053 369.393 13.2612 368.003 13.2554 366.654C13.2496 365.305 12.8716 363.746 11.7142 363.031C11.0004 362.647 10.1979 362.458 9.38783 362.484C8.03272 362.431 6.51476 362.571 5.59002 363.566C4.42684 364.799 4.73508 366.869 5.73542 368.218C6.73576 369.568 8.26536 370.434 9.67281 371.371C10.7987 372.042 11.7589 372.958 12.4819 374.052C12.569 374.205 12.6393 374.366 12.6913 374.534H21.2174C23.1243 373.563 24.8909 372.339 26.4692 370.894Z" fill="#01C4D4"/>
<path d="M238.815 368.434C238.818 368.381 238.818 368.329 238.815 368.276C238.851 367.535 238.71 366.795 238.402 366.119C237.46 364.211 235.192 363.897 233.266 363.566C230.096 363.022 227.058 361.879 224.316 360.198C222.495 359.087 220.628 357.453 220.402 355.156C220.402 354.685 220.437 354.214 220.402 353.783C220.402 353.469 220.402 353.161 220.402 352.864C220.402 351.637 220.332 350.509 219.419 350.288C213.963 348.939 209.247 344.292 207.368 338.4C206.967 337.144 206.688 335.835 206.17 334.631C204.524 330.816 200.86 328.746 198.092 325.861C194.451 322.063 192.34 316.782 190.81 311.484C189.281 306.186 188.222 300.701 186.216 295.601C182.871 287.092 179.853 278.031 174.182 271.232C173.327 270.202 172.385 269.15 171.391 268.085C166.348 260.722 162.923 252.016 158.555 244.071C157.721 242.443 156.705 240.915 155.525 239.517C154.013 237.842 152.14 236.644 150.395 235.278C141.991 228.717 136.617 218.411 129.376 210.31C128.114 208.897 126.149 206.907 125.218 205.203C125.213 204.209 125.298 203.216 125.474 202.237C125.939 199.824 127.19 197.532 126.974 195.072C126.899 194.593 126.858 194.109 126.852 193.624C126.912 193.065 127.061 192.519 127.294 192.007C127.669 190.898 128.164 189.833 128.772 188.832C129.825 187.212 130.519 185.386 130.807 183.475C132.255 182.102 132.883 179.59 134.692 178.956C135.698 178.607 137.019 178.846 137.6 177.851C137.768 177.51 137.861 177.137 137.873 176.758C138.057 174.793 137.889 172.812 137.379 170.907C137.525 169.9 137.564 168.88 137.495 167.865C137.297 165.334 136.574 162.872 135.373 160.636C134.634 159.228 133.628 157.821 132.191 157.495C131.877 157.425 131.557 157.408 131.255 157.315C129.405 156.774 128.766 153.918 127.097 153.034C129.243 154.198 131.435 155.512 133.453 154.535C135.989 153.296 136.198 149.434 136.007 146.352L135.332 134.935C134.971 129.119 134.518 122.949 131.522 118.156C128.824 113.829 124.404 111.229 119.891 109.607C116.843 108.508 113.493 107.804 110.475 108.926C110.655 108.798 110.829 108.67 111.004 108.554C110.632 108.665 110.269 108.801 109.916 108.961C108.333 109.766 106.863 110.775 105.543 111.962C106.275 110.111 106.649 108.137 106.648 106.146C106.665 103.167 105.82 100.247 104.217 97.7365L107.625 94.8692L106.828 93.5723L108.329 92.1415C108.234 91.9887 108.102 91.8625 107.946 91.775C107.789 91.6874 107.612 91.6414 107.433 91.6414C107.363 91.6356 107.293 91.6356 107.223 91.6414C107.277 91.2141 107.242 90.7804 107.119 90.3677L107.014 90.4665C106.924 90.1109 106.783 89.7702 106.595 89.4546H106.717C106.646 89.3239 106.566 89.1977 106.479 89.0765C106.479 89.1347 106.479 89.1987 106.479 89.2568C105.988 88.5343 105.388 87.8926 104.699 87.355C102.094 85.2148 99.1103 83.4409 95.8824 83.2024C94.3121 83.0861 92.736 83.3362 91.1657 83.2024C89.0487 83.057 86.9956 82.2544 84.8728 82.1672C82.75 82.08 80.3597 82.9465 79.4815 85.0752C79.1034 86.0057 79.0511 87.0526 78.7661 88.0122C78.1322 90.1525 76.4397 91.6356 75.0032 93.2175C73.5666 94.7994 72.2348 96.9222 72.6303 99.1323C72.7878 99.8353 73.0341 100.515 73.3631 101.156L80.7319 117.069C80.7621 118.233 80.7272 119.398 80.6272 120.558C80.5807 121.058 80.5167 121.564 80.4353 122.076C80.4004 122.291 80.3597 122.512 80.3073 122.733C79.4374 122.88 78.649 123.334 78.0856 124.013C77.875 124.278 77.7421 124.596 77.7018 124.932C77.7439 125.465 77.8374 125.993 77.981 126.508C77.9927 127.194 77.8306 127.873 77.5098 128.48C76.7712 130.195 75.9861 131.94 74.7298 133.225C74.218 133.755 73.6364 134.197 73.1188 134.72C72.5284 135.348 71.9896 136.023 71.5078 136.738C70.4319 138.25 69.321 139.832 68.9255 141.717C68.2741 144.799 66.9597 147.73 66.0176 150.737C65.8834 150.979 65.7171 151.202 65.5232 151.4C64.9416 151.947 64.1972 152.179 63.6272 152.715C62.3477 153.924 62.464 156.134 62.7781 157.978C63.9064 164.829 65.8838 171.5 66.6689 178.409C66.983 181.12 67.111 183.876 67.7158 186.523C67.9389 187.666 68.3622 188.76 68.9662 189.756C68.879 192.356 69.1465 194.991 68.2218 197.387C67.7914 198.469 67.1924 199.457 66.6689 200.492C65.9444 201.984 65.3017 203.514 64.7439 205.075L61.5858 213.392C61.0042 214.968 60.3877 216.556 59.9341 218.196C58.6255 222.971 58.6197 228.083 58.8058 233.056C58.8296 233.21 58.7965 233.367 58.7127 233.498C58.6197 233.614 58.3987 233.579 58.3929 233.422C58.3522 233.713 58.1893 234.207 58.1544 234.492C59.5619 235.179 61.1438 234.958 62.7141 234.789C62.7141 234.94 62.7141 235.097 62.7141 235.249C62.7114 235.285 62.7114 235.322 62.7141 235.359C62.7283 235.833 62.7769 236.305 62.8595 236.772C62.8595 236.772 62.8595 236.772 62.8595 236.807C62.9002 237.046 62.9526 237.278 63.0049 237.511C63.0049 237.575 63.0049 237.633 63.0514 237.697C63.1038 237.906 63.1619 238.122 63.2259 238.325C63.2608 238.436 63.2899 238.535 63.3248 238.639C63.3597 238.744 63.412 238.895 63.4586 239.017C63.5051 239.139 63.5109 239.174 63.54 239.25C63.9238 240.25 64.3833 241.216 64.8195 242.193C65.5686 243.704 66.0694 245.326 66.3025 246.997C66.3374 247.381 66.3491 247.764 66.3665 248.16V248.561C66.378 248.976 66.413 249.389 66.4712 249.8C66.5759 250.463 66.7736 251.097 66.9307 251.748C67.0237 252.132 67.0935 252.528 67.1633 252.912C67.2331 253.295 67.2971 253.801 67.3552 254.243C67.7934 257.531 68.1171 260.827 68.3265 264.13C68.3788 264.927 68.4254 265.73 68.4661 266.527C68.7394 272.343 68.6696 278.159 68.5998 284.009C68.5612 285.918 68.3667 287.82 68.0182 289.697C67.047 295.205 65.0405 300.556 63.7144 306.023C63.5749 306.604 63.4469 307.186 63.3248 307.767C63.0297 309 62.8352 310.255 62.7432 311.519C62.7344 313.204 62.8863 314.887 63.1968 316.544C63.4838 318.556 63.7047 320.578 63.8598 322.61C62.7875 324.502 62.0886 326.583 61.801 328.74C61.0973 335.213 55.6128 340.069 54.8684 346.542C54.8189 346.953 54.8014 347.367 54.8161 347.781C54.7986 348.048 54.7986 348.316 54.8161 348.584C54.7384 349.271 54.7977 349.967 54.9905 350.631C55.2662 351.327 55.7286 351.934 56.3268 352.384C56.925 352.835 57.6359 353.112 58.3812 353.184C59.8061 353.364 61.231 353.004 62.6501 352.765C63.2899 352.655 63.9296 352.585 64.5694 352.521C64.5868 352.742 64.5868 352.963 64.5694 353.184C64.2683 353.725 64.0116 354.289 63.8017 354.871C63.4431 355.552 63.2199 356.297 63.1445 357.063C63.1194 357.968 63.347 358.863 63.8017 359.646C65.2324 362.257 68.088 363.484 70.8215 363.717C73.555 363.949 76.2711 363.35 79.0045 363.205H79.4698C79.5639 363.462 79.6787 363.711 79.813 363.949C81.2379 366.561 84.0993 367.788 86.827 368.021C89.5547 368.253 92.2823 367.66 95.0158 367.515C95.8301 367.474 96.6501 367.474 97.4643 367.416C99.1354 367.289 100.789 366.987 102.396 366.514C103.553 368.16 104.881 369.678 106.357 371.045C111.149 375.116 117.774 374.883 123.764 374.087C129.754 373.29 136.507 371.813 141.968 374.668C146.155 374.209 148.65 380.856 152.855 381.025C154.786 381.101 156.519 379.746 157.915 378.257C158.395 377.632 159.012 377.127 159.718 376.779C160.302 376.606 160.921 376.586 161.515 376.721C164.773 377.311 167.701 379.079 169.739 381.688C170.797 383.014 171.879 384.683 173.467 384.718C174.892 384.718 176.154 383.375 177.567 383.555C178.527 383.683 179.312 384.503 180.144 385.009C182.749 386.55 185.96 385.125 188.46 383.427C190.961 381.729 193.637 379.676 196.568 379.984C198.47 380.182 200.162 381.368 201.936 382.142C207.403 384.526 214.109 382.723 218.029 377.861C218.651 377.082 219.291 376.18 220.21 375.977C220.824 375.901 221.447 375.994 222.013 376.244C225.299 377.338 228.753 378.344 232.115 377.599C235.477 376.855 238.675 373.813 238.745 369.986C238.75 369.753 238.74 369.52 238.716 369.288C238.716 369.143 238.745 368.992 238.745 368.841C238.777 368.707 238.8 368.571 238.815 368.434ZM106.793 149.917C106.56 150.529 106.156 151.062 105.63 151.452C105.583 151.202 105.537 150.952 105.485 150.696C105.275 149.615 105.037 148.539 104.781 147.469C105.557 147.967 106.386 148.376 107.253 148.69C107.084 149.097 106.944 149.533 106.776 149.917H106.793ZM98.2669 123.664C98.2669 123.705 98.2669 123.745 98.2669 123.786C98.2669 125.833 98.9765 127.002 100.012 127.671C98.8569 129.912 98.2585 132.397 98.2669 134.918C97.8714 134.61 97.4469 134.336 97.1037 133.993C96.4668 133.338 95.9491 132.576 95.5742 131.742C95.7409 131.771 95.9124 131.744 96.0627 131.667C96.3593 131.463 96.3477 130.986 96.307 130.602C95.9137 126.951 96.4064 123.258 97.7435 119.837C98.4232 119.598 99.0793 119.296 99.7035 118.936C98.8388 120.339 98.3482 121.941 98.2786 123.588C98.2786 123.588 98.2495 123.635 98.2495 123.664H98.2669ZM126.73 152.854C126.429 153.982 126.263 155.142 126.236 156.309C125.182 154.693 123.627 153.467 121.81 152.819C121.596 152.755 121.378 152.703 121.158 152.662C121.294 152.527 121.44 152.403 121.595 152.29C123.264 151.127 125.142 151.941 127.062 152.959C126.948 152.916 126.831 152.881 126.713 152.854H126.73Z" fill="url(#paint0_linear_64_2)"/>
<path d="M57.631 363.903C57.6074 364.835 57.8692 365.752 58.3812 366.532C60.0039 369.189 63.2608 370.434 66.3607 370.667C69.4606 370.899 72.5663 370.294 75.6662 370.149C76.5968 370.108 77.5273 370.102 78.452 370.05C83.2676 369.759 87.868 368.055 92.4103 366.369C93.1547 366.095 94.0213 365.653 94.062 364.868C94.0432 364.597 93.9646 364.333 93.8319 364.096C93.6991 363.859 93.5156 363.654 93.2943 363.496C92.7004 362.976 92.0319 362.549 91.3111 362.228C88.787 361.117 85.7627 361.408 83.3665 360.041C82.8372 359.739 82.3545 359.366 81.802 359.116C81.1558 358.856 80.4729 358.699 79.7781 358.651C76.7786 358.31 73.7455 358.41 70.775 358.948C68.5126 359.36 66.2851 360.029 63.9878 360.192C63.1177 360.267 62.2412 360.21 61.3881 360.023C60.8065 359.89 60.0679 359.366 59.5154 359.715C58.9628 360.064 58.6546 361.175 58.3929 361.669C57.9854 362.352 57.7259 363.113 57.631 363.903Z" fill="#3F3D56"/>
<path opacity="0.05" d="M57.631 363.903C57.6074 364.835 57.8692 365.752 58.3812 366.532C60.0039 369.189 63.2608 370.434 66.3607 370.667C69.4606 370.899 72.5663 370.294 75.6662 370.149C76.5968 370.108 77.5273 370.102 78.452 370.05C83.2676 369.759 87.868 368.055 92.4103 366.369C93.1547 366.095 94.0213 365.653 94.062 364.868C94.0432 364.597 93.9646 364.333 93.8319 364.096C93.6991 363.859 93.5156 363.654 93.2943 363.496C92.7004 362.976 92.0319 362.549 91.3111 362.228C88.787 361.117 85.7627 361.408 83.3665 360.041C82.8372 359.739 82.3545 359.366 81.802 359.116C81.1558 358.856 80.4729 358.699 79.7781 358.651C76.7786 358.31 73.7455 358.41 70.775 358.948C68.5126 359.36 66.2851 360.029 63.9878 360.192C63.1177 360.267 62.2412 360.21 61.3881 360.023C60.8065 359.89 60.0679 359.366 59.5154 359.715C58.9628 360.064 58.6546 361.175 58.3929 361.669C57.9854 362.352 57.7259 363.113 57.631 363.903Z" fill="black"/>
<path d="M75.8466 368.265C75.8205 369.197 76.0824 370.115 76.5969 370.893C78.2195 373.551 81.4707 374.796 84.5764 375.029C87.6821 375.261 90.782 374.656 93.8819 374.511C94.8124 374.47 95.7371 374.464 96.6677 374.412C101.483 374.121 106.084 372.417 110.626 370.731C111.37 370.452 112.237 370.015 112.278 369.224C112.259 368.954 112.18 368.691 112.047 368.455C111.915 368.218 111.731 368.014 111.51 367.858C110.918 367.336 110.249 366.909 109.527 366.59C107.003 365.479 103.978 365.764 101.582 364.397C101.053 364.1 100.57 363.722 100.018 363.478C99.3709 363.219 98.6884 363.06 97.9937 363.007C94.994 362.668 91.9609 362.77 88.9907 363.31C86.7283 363.722 84.5007 364.391 82.2035 364.548C81.3337 364.628 80.4567 364.573 79.6037 364.385C79.0221 364.252 78.2835 363.728 77.731 364.077C77.1785 364.426 76.8644 365.537 76.6085 366.031C76.1985 366.713 75.9388 367.475 75.8466 368.265Z" fill="#3F3D56"/>
<path d="M66.3318 150.551C66.1204 149.965 65.7348 149.457 65.2267 149.097C64.0112 148.422 62.5747 149.678 62.0454 150.941C61.5162 152.203 61.3417 153.75 60.3006 154.663C59.6667 155.244 58.7943 155.454 58.1429 156C56.689 157.228 56.8344 159.49 57.1775 161.351C58.4628 168.33 60.7136 175.112 61.6092 182.143C61.964 184.906 62.1094 187.709 62.7724 190.402C63.1795 191.995 63.8251 193.612 65.0988 194.647C66.3725 195.683 68.4081 195.933 69.6061 194.804C67.4395 188.932 66.3576 182.714 66.4132 176.455C66.4481 172.384 66.9948 168.313 67.1053 164.195C67.2274 160.601 67.0471 157.001 66.8668 153.407C66.8835 152.483 66.7092 151.567 66.355 150.714C66.1673 150.293 65.8587 149.937 65.4683 149.691C65.0779 149.446 64.6234 149.322 64.1624 149.335" fill="#FBBEBE"/>
<path d="M92.4454 123.175C100.53 123.175 107.084 116.621 107.084 108.537C107.084 100.452 100.53 93.8978 92.4454 93.8978C84.3606 93.8978 77.8066 100.452 77.8066 108.537C77.8066 116.621 84.3606 123.175 92.4454 123.175Z" fill="#CB8C8E"/>
<path d="M112.173 152.546C120.283 152.546 126.858 145.971 126.858 137.861C126.858 129.75 120.283 123.175 112.173 123.175C104.063 123.175 97.4878 129.75 97.4878 137.861C97.4878 145.971 104.063 152.546 112.173 152.546Z" fill="#FBBEBE"/>
<path d="M118.216 152.081C118.344 153.244 118.797 154.599 119.908 154.895C120.424 154.957 120.942 154.986 121.461 154.983C121.874 155.059 122.264 155.233 122.596 155.49C122.929 155.747 123.196 156.079 123.375 156.46C123.725 157.229 123.864 158.079 123.776 158.92C123.68 160.199 123.268 161.434 122.578 162.514C121.269 164.389 119.374 165.776 117.192 166.458C115.026 167.125 112.789 167.537 110.527 167.685C109.524 167.846 108.5 167.815 107.509 167.592C106.885 167.388 106.297 167.09 105.764 166.708C104.108 165.597 102.658 164.208 101.478 162.602C100.61 161.483 99.9824 160.199 99.6339 158.827C99.2997 157.45 99.4926 155.998 100.175 154.756C100.384 154.344 100.729 154.018 101.152 153.831C102.396 153.383 103.525 154.924 104.845 154.959C105.892 154.959 106.718 154.064 107.171 153.122C107.625 152.179 107.863 151.115 108.538 150.318C109.323 149.382 110.556 148.969 111.737 148.655C113.679 148.143 116.227 147.37 118.251 147.585C119.362 147.695 118.635 148.358 118.379 149.161C118.122 150.112 118.066 151.107 118.216 152.081Z" fill="#FBBEBE"/>
<path d="M104.374 167.406C106.159 166.603 107.148 164.666 108.742 163.521C110.079 162.561 111.748 162.218 113.278 161.607C114.83 160.988 116.251 160.08 117.465 158.932C118.57 157.891 119.553 156.605 120.955 156.094C122.026 155.753 123.176 155.753 124.247 156.094C127.265 156.931 129.586 159.444 130.935 162.264C132.284 165.085 132.802 168.226 133.308 171.314L134.064 175.967C134.625 178.809 134.896 181.701 134.873 184.598C134.75 187.505 133.994 190.413 132.232 192.74C131.55 193.748 130.986 194.831 130.551 195.968C130.291 196.485 130.123 197.044 130.057 197.619C130.061 198.113 130.106 198.605 130.191 199.091C130.435 201.592 129.028 203.924 128.481 206.378C128.198 208.024 128.112 209.697 128.225 211.362C128.211 211.58 128.255 211.796 128.353 211.991C128.478 212.166 128.649 212.302 128.847 212.386C129.231 212.59 129.627 212.782 130.01 212.968C126.801 213.681 123.521 214.028 120.234 214.003C114.47 213.869 108.846 212.258 103.118 211.589C102.902 208.96 103.624 206.425 103.786 203.796C103.819 202.08 103.712 200.365 103.466 198.666C102.987 194.023 103.032 189.341 103.6 184.708C103.798 183.08 104.066 181.457 104.141 179.817C104.228 177.874 104.054 175.926 104.193 174.001C104.327 172.157 104.775 170.331 104.822 168.482C104.876 168.278 104.862 168.062 104.781 167.867C104.7 167.673 104.557 167.51 104.374 167.406Z" fill="#F4F6FB"/>
<path d="M110.864 208.734C116.89 208.768 122.2 208.943 128.208 209.356C129.266 211.101 126.73 215.806 128.167 217.248C136.402 225.501 138.234 236.592 147.796 243.274C149.779 244.659 155.356 245.781 157.101 247.491C158.468 248.846 156.38 247.881 157.392 249.527C163.208 259.018 176.323 268.388 183.924 276.547C190.368 283.463 193.811 292.687 197.615 301.347C199.895 306.529 201.105 312.118 202.849 317.509C204.594 322.9 206.996 328.269 211.137 332.13C214.289 335.073 218.459 337.179 220.326 341.058C220.852 342.311 221.308 343.593 221.693 344.896C222.793 347.893 224.623 350.569 227.018 352.68C229.412 354.791 232.296 356.272 235.407 356.988C237.099 357.36 236.326 360.181 236.5 361.908C236.739 364.269 238.873 365.944 240.955 367.078C244.123 368.799 247.564 369.958 251.127 370.504C253.314 370.835 255.896 371.161 256.943 373.098C257.291 373.777 257.453 374.535 257.414 375.296C257.339 379.193 253.692 382.275 249.854 383.043C246.015 383.811 242.095 382.775 238.361 381.665C237.709 381.408 237.005 381.315 236.308 381.391C235.261 381.595 234.564 382.514 233.825 383.311C231.545 385.763 228.591 387.485 225.333 388.26C222.076 389.036 218.662 388.829 215.522 387.667C213.498 386.876 211.579 385.672 209.415 385.468C206.077 385.154 203.059 387.248 200.186 388.958C197.312 390.668 193.683 392.133 190.723 390.563C189.746 390.051 188.885 389.22 187.815 389.086C186.204 388.9 184.768 390.296 183.162 390.249C181.359 390.214 180.121 388.504 178.917 387.167C176.468 384.467 173.159 382.702 169.553 382.171C168.877 382.03 168.178 382.049 167.512 382.229C166.724 382.569 166.022 383.082 165.459 383.729C163.871 385.247 161.899 386.637 159.707 386.544C154.92 386.376 152.076 379.612 147.313 380.077C141.101 377.169 133.413 378.669 126.602 379.495C119.792 380.321 112.249 380.56 106.793 376.401C103.92 374.203 101.972 371.01 99.2907 368.573C95.0567 364.723 89.3454 363.042 83.8377 361.472C75.1138 358.982 66.0526 356.47 57.0844 357.825C55.4676 358.069 53.845 358.407 52.2223 358.25C50.5997 358.093 48.9363 357.18 48.3663 355.656C48.1174 354.874 48.0616 354.044 48.2035 353.236C49.0468 346.653 55.2873 341.709 56.0841 335.12C56.4854 331.851 58.2418 328.99 60.1145 326.285C61.7081 323.867 63.1625 321.36 64.4707 318.777C67.5706 312.961 70.6821 307.145 73.0201 301.003C75.4802 294.542 77.0564 287.784 78.6267 281.049C80.1388 274.553 80.86 267.899 81.9476 261.315C82.7385 256.529 83.9773 251.83 85.2161 247.136C88.8801 233.271 92.5675 219.324 98.5928 206.32C102.513 207.425 106.834 208.71 110.864 208.734Z" fill="#E3E8F4"/>
<path d="M110.864 210.478C116.89 210.513 122.2 210.106 128.208 210.519C129.266 212.264 131.505 214.276 132.942 215.713C141.177 223.977 147.295 234.446 156.851 241.122C158.834 242.512 160.963 243.734 162.667 245.438C163.999 246.845 165.157 248.407 166.116 250.091C171.932 259.588 176.3 270.156 183.901 278.315C190.345 285.231 193.788 294.455 197.592 303.115C199.872 308.297 201.081 313.886 202.826 319.277C204.571 324.668 206.973 330.037 211.114 333.898C214.266 336.841 218.436 338.947 220.303 342.826C220.828 344.079 221.285 345.361 221.67 346.664C222.77 349.661 224.6 352.337 226.994 354.448C229.389 356.559 232.273 358.04 235.384 358.756C237.076 359.128 236.303 361.949 236.477 363.676C236.715 366.037 238.85 367.712 240.932 368.846C244.1 370.567 247.541 371.726 251.104 372.272C253.291 372.603 255.873 372.929 256.92 374.866C257.267 375.545 257.43 376.303 257.391 377.064C257.316 380.961 253.669 384.043 249.83 384.811C245.992 385.579 242.072 384.544 238.338 383.433C237.686 383.176 236.982 383.083 236.285 383.159C235.238 383.363 234.54 384.282 233.802 385.079C231.522 387.531 228.567 389.253 225.31 390.028C222.053 390.804 218.639 390.597 215.499 389.435C213.475 388.644 211.556 387.44 209.392 387.236C206.054 386.922 203.035 389.016 200.162 390.726C197.289 392.436 193.66 393.901 190.7 392.331C189.723 391.819 188.862 390.988 187.792 390.854C186.181 390.668 184.744 392.064 183.139 392.017C181.336 391.982 180.097 390.272 178.893 388.935C176.454 386.231 173.153 384.458 169.553 383.915C168.877 383.774 168.178 383.794 167.512 383.974C166.724 384.314 166.022 384.827 165.459 385.474C163.871 386.992 161.899 388.382 159.707 388.289C154.92 388.12 152.076 381.356 147.313 381.822C141.101 378.914 133.413 380.414 126.602 381.24C119.792 382.066 112.249 382.304 106.793 378.146C103.92 375.948 101.972 372.755 99.2907 370.318C95.0567 366.468 89.3454 364.787 83.8377 363.216C75.1138 360.727 66.0526 358.215 57.0844 359.57C55.4676 359.814 53.845 360.151 52.2223 359.994C50.5997 359.837 48.9363 358.924 48.3663 357.401C48.1174 356.619 48.0616 355.789 48.2035 354.981C49.0468 348.397 55.2873 343.454 56.0841 336.864C56.4854 333.596 58.2418 330.734 60.1145 328.03C61.7081 325.612 63.1625 323.105 64.4707 320.522C67.5706 314.706 70.6821 308.89 73.0201 302.748C75.4802 296.287 77.0564 289.529 78.6267 282.794C80.1388 276.297 80.86 269.644 81.9476 263.06C82.7385 258.274 83.9773 253.574 85.2161 248.881C88.8802 235.016 92.5675 221.069 98.5928 208.065C102.513 209.17 106.834 210.455 110.864 210.478Z" fill="#E3E8F4"/>
<path d="M110.864 209.315C116.89 209.35 122.2 208.943 128.208 209.356C129.266 211.101 131.505 213.113 132.942 214.55C141.177 222.814 147.295 233.283 156.851 239.959C158.834 241.349 160.963 242.571 162.667 244.275C163.999 245.682 165.157 247.244 166.116 248.928C171.932 258.425 176.3 268.993 183.901 277.152C190.345 284.067 193.788 293.292 197.592 301.951C199.872 307.133 201.081 312.723 202.826 318.114C204.571 323.505 206.973 328.873 211.114 332.735C214.266 335.678 218.436 337.783 220.303 341.663C220.828 342.916 221.285 344.198 221.67 345.501C222.77 348.498 224.6 351.174 226.994 353.285C229.389 355.396 232.273 356.877 235.384 357.593C237.076 357.965 236.303 360.786 236.477 362.513C236.715 364.874 238.85 366.549 240.932 367.683C244.1 369.404 247.541 370.563 251.104 371.109C253.291 371.44 255.873 371.766 256.92 373.703C257.267 374.381 257.43 375.14 257.391 375.901C257.316 379.798 253.669 382.88 249.83 383.648C245.992 384.416 242.072 383.38 238.338 382.27C237.686 382.013 236.982 381.92 236.285 381.996C235.238 382.2 234.54 383.119 233.802 383.915C231.522 386.368 228.567 388.09 225.31 388.865C222.053 389.641 218.639 389.434 215.499 388.272C213.475 387.481 211.556 386.277 209.392 386.073C206.054 385.759 203.035 387.853 200.162 389.563C197.289 391.273 193.66 392.738 190.7 391.168C189.723 390.656 188.862 389.824 187.792 389.691C186.181 389.505 184.744 390.9 183.139 390.854C181.336 390.819 180.097 389.109 178.893 387.771C176.454 385.068 173.153 383.295 169.553 382.752C168.877 382.611 168.178 382.631 167.512 382.81C166.724 383.151 166.022 383.664 165.459 384.311C163.871 385.829 161.899 387.219 159.707 387.126C154.92 386.957 152.076 380.193 147.313 380.659C141.101 377.751 133.413 379.251 126.602 380.077C119.792 380.903 112.249 381.141 106.793 376.983C103.92 374.784 101.972 371.592 99.2907 369.155C95.0567 365.304 89.3454 363.624 83.8377 362.053C75.1138 359.564 66.0526 357.052 57.0844 358.407C55.4676 358.651 53.845 358.988 52.2223 358.831C50.5997 358.674 48.9363 357.761 48.3663 356.237C48.1174 355.456 48.0616 354.626 48.2035 353.818C49.0468 347.234 55.2873 342.291 56.0841 335.701C56.4854 332.433 58.2418 329.571 60.1145 326.867C61.7081 324.449 63.1625 321.942 64.4707 319.359C67.5706 313.543 70.6821 307.727 73.0201 301.585C75.4802 295.124 77.0564 288.365 78.6267 281.631C80.1388 275.134 80.86 268.481 81.9476 261.897C82.7385 257.111 83.9773 252.411 85.2161 247.718C88.8802 233.853 92.5675 219.906 98.5928 206.902C102.513 208.007 106.834 209.292 110.864 209.315Z" fill="#F4F6FB"/>
<path d="M58.4104 236.004C56.4911 238.104 56.9273 241.442 58.0498 244.054C59.1723 246.665 60.8764 249.114 61.1904 251.94C61.2951 252.882 61.237 253.836 61.3998 254.772C61.5219 255.447 61.7488 256.093 61.9232 256.756C62.1352 257.595 62.2984 258.445 62.4118 259.303C63.0283 263.444 63.447 267.62 63.668 271.807C63.9879 277.728 63.9065 283.666 63.825 289.598C63.7087 297.898 59.7539 305.668 57.8288 313.74C57.4901 314.989 57.2681 316.266 57.1658 317.555C57.1572 319.272 57.3268 320.986 57.6718 322.668C59.3713 333.255 59.0258 344.07 56.654 354.527C58.3988 355.9 59.6143 358.203 59.1956 360.378C62.9468 361.035 66.8726 361.681 70.4843 360.489C72.6653 359.773 74.6252 358.412 76.8818 357.988C78.6266 357.668 80.6447 357.831 81.8777 356.563C82.3788 355.971 82.7441 355.276 82.9478 354.527C87.2051 342.139 86.0128 328.652 85.7744 315.561C85.6464 308.523 85.7744 301.48 85.5068 294.449C84.9815 281.912 83.0144 269.477 79.6444 257.39C78.0159 251.574 76.4456 245.758 73.2469 240.599C72.6028 239.406 71.6911 238.379 70.5832 237.598C69.3676 236.854 67.8962 236.673 66.4771 236.51C63.511 236.191 61.3765 236.342 58.4104 236.004Z" fill="#3F3D56"/>
<path opacity="0.05" d="M82.9478 354.533C82.7428 355.28 82.3776 355.972 81.8777 356.563C80.6447 357.837 78.6208 357.668 76.8818 357.994C76.6608 358.035 76.4398 358.087 76.2246 358.145C74.2414 358.674 72.4501 359.843 70.4901 360.471C66.8726 361.635 62.9294 361.018 59.1956 360.361C59.6143 358.186 58.3988 355.877 56.654 354.504C59.0277 344.049 59.3751 333.236 57.6776 322.65C57.3278 320.969 57.1562 319.256 57.1658 317.538C57.2705 316.249 57.4924 314.972 57.8288 313.723C59.7422 305.645 63.7087 297.875 63.825 289.575C63.9065 283.643 63.9879 277.705 63.6738 271.784C63.4451 267.597 63.0244 263.429 62.4118 259.28C62.2975 258.423 62.1364 257.572 61.9291 256.733C61.7488 256.075 61.5219 255.424 61.4056 254.749C61.237 253.819 61.2951 252.859 61.1904 251.917C60.8764 249.09 59.1781 246.648 58.0498 244.036C57.5787 242.96 57.2728 241.819 57.1425 240.652C57.0088 239.83 57.0528 238.99 57.2715 238.188C57.4902 237.385 57.8786 236.639 58.4104 235.999C60.4053 236.22 62.0163 236.214 63.7611 236.29C64.616 236.324 65.5058 236.383 66.4771 236.493C67.8962 236.65 69.3851 236.83 70.589 237.581C71.6959 238.361 72.6059 239.389 73.2469 240.582C73.5609 241.088 73.8575 241.6 74.1425 242.117C76.7539 246.869 78.1788 252.103 79.6444 257.367C83.0139 269.454 84.981 281.889 85.5069 294.426C85.8035 301.457 85.6464 308.5 85.7744 315.543C86.0187 328.664 87.2051 342.14 82.9478 354.533Z" fill="black"/>
<path d="M104.391 240.564C104.391 241.582 104.391 242.606 104.391 243.623C104.364 253.448 104.339 263.271 104.316 273.093C104.316 277.135 104.316 281.188 103.897 285.207C102.867 295.676 99.0405 305.813 99.4476 316.293C99.7384 323.906 100.029 331.607 98.4996 339.074C97.918 341.936 97.0689 344.751 96.6501 347.641C96.2314 350.532 96.2779 353.579 97.4237 356.272C98.2495 358.197 99.6395 360.018 99.5639 362.088C99.4783 362.978 99.1847 363.835 98.7069 364.591C98.2291 365.347 97.5803 365.98 96.813 366.438C95.2667 367.337 93.5525 367.909 91.7764 368.119C89.5604 368.486 87.3166 368.659 85.0706 368.637C81.8544 368.602 78.1904 367.898 76.527 365.147C75.4103 363.298 75.4976 360.948 76.0326 358.849C76.0966 358.604 76.1606 358.366 76.2304 358.127C76.7771 356.295 77.5564 354.533 77.9752 352.672C78.6478 349.735 78.4311 346.663 77.3529 343.849C77.1551 343.326 76.5328 342.337 75.9745 342.401C75.0846 340.104 74.9509 337.591 74.8113 335.125L73.9912 318.434C73.8168 314.799 73.6423 311.117 74.3867 307.558C74.9683 304.65 76.2071 301.882 76.5561 298.933C76.7121 297.162 76.7024 295.38 76.527 293.611C75.8751 284.491 74.6944 275.417 72.9909 266.433C72.9346 265.976 72.782 265.536 72.5431 265.142C72.1592 264.607 71.4904 264.357 71.0193 263.892C70.0306 262.926 70.1236 261.35 69.891 259.983C69.4723 257.518 67.838 255.47 66.5759 253.318C64.5673 249.851 63.4428 245.942 63.3015 241.937C63.23 240.043 63.3843 238.147 63.761 236.289C63.8075 236.039 63.8657 235.789 63.9239 235.539C76.5998 234.73 89.3272 235.511 101.809 237.866C102.722 238.034 103.746 238.296 104.17 239.122C104.356 239.579 104.432 240.073 104.391 240.564Z" fill="#3F3D56"/>
<path d="M175.799 286.342C182.057 297.357 188.338 308.396 193.317 320.045C197.359 329.496 200.674 339.563 207.455 347.287C213.806 354.516 222.577 359.029 231.19 363.374L223.478 356.581C215.737 349.747 207.833 342.721 202.919 333.643C200.244 328.699 198.545 323.296 196.521 318.033C191.363 304.495 184.18 291.82 175.218 280.438C172.726 277.168 170.046 274.046 167.192 271.086C169.163 276.321 173.019 281.456 175.799 286.342Z" fill="#E3E8F4"/>
<path d="M143.876 361.815C145.76 365.688 147.679 369.62 150.552 372.83C150.796 370.911 149.482 369.189 148.441 367.561C146.557 364.601 145.411 361.268 144.265 357.97C143.207 354.917 142.224 350.706 139.973 348.293C138.821 352.434 142.131 358.255 143.876 361.815Z" fill="#E3E8F4"/>
<path d="M122.06 289.267C122.607 292.175 122.927 295.083 123.66 297.927C124.379 300.482 125.263 302.988 126.306 305.429L138.566 335.986C138.461 331.834 136.239 328.077 134.826 324.18C133.081 319.393 132.453 314.293 131.028 309.373C129.865 305.383 128.178 301.573 126.957 297.601C125.259 292 124.544 286.15 123.212 280.45C122.009 275.517 120.507 270.661 118.716 265.91C117.902 263.665 116.971 261.333 115.174 259.78C113.377 258.227 110.364 257.785 108.666 259.466C106.276 261.833 109.899 263.316 111.091 264.857C116.604 272.03 120.357 280.397 122.048 289.284L122.06 289.267Z" fill="#E3E8F4"/>
<path d="M138.513 226.141C139.164 226.797 139.731 227.531 140.2 228.327C140.857 229.537 141.119 230.95 141.945 232.073C140.49 230.031 138.83 228.145 136.99 226.443C135.873 225.483 134.663 224.657 133.541 223.698C132.686 222.965 128.94 219.79 129.685 218.708C132.965 220.377 136.018 223.448 138.513 226.141Z" fill="#E3E8F4"/>
<path d="M99.593 116.871C99.4592 118.075 98.7206 119.116 98.0867 120.151C96.2379 123.223 95.2068 126.717 95.0915 130.3C95.0567 131.351 95.1033 132.403 95.231 133.446C95.2776 133.836 95.2892 134.325 94.9519 134.528C94.7703 134.612 94.5673 134.639 94.3703 134.604C93.9748 134.569 93.591 134.522 93.2071 134.458C86.9899 133.464 81.5462 129.224 75.2882 128.154C75.6744 127.971 76.0169 127.708 76.2928 127.382C76.5687 127.056 76.7715 126.675 76.8876 126.264C77.0556 125.795 77.1821 125.312 77.2656 124.821C77.3587 124.304 77.4285 123.786 77.4808 123.28C77.8763 119.535 77.3063 116.092 77.097 112.288C76.8585 107.856 82.3313 109.316 85.5417 109.258C88.1182 109.211 90.7411 109.171 93.2304 109.869C95.7196 110.567 98.0867 112.108 99.1568 114.457C99.5155 115.208 99.6661 116.042 99.593 116.871Z" fill="#CB8C8E"/>
<path d="M94.9519 134.528C94.7704 134.612 94.5674 134.639 94.3703 134.604C93.9749 134.569 93.591 134.522 93.2072 134.458C92.6721 133.958 92.1545 133.435 91.6601 132.888C90.4969 131.597 89.4501 130.178 88.1008 129.078C86.0167 127.46 83.469 126.55 80.8308 126.485C79.5126 126.52 78.1937 126.446 76.8876 126.264C77.0556 125.795 77.1821 125.312 77.2657 124.821C77.3587 124.304 77.4285 123.786 77.4809 123.28C78.2101 123.186 78.9441 123.134 79.6793 123.123C80.5423 122.998 81.4175 122.981 82.2848 123.071C83.7214 123.286 84.9892 124.088 86.2804 124.757C88.0659 125.682 89.9793 126.38 91.6368 127.526C92.1486 127.886 92.6372 128.282 93.1257 128.689C93.7887 129.23 94.4459 129.776 95.109 130.311C95.0742 131.362 95.1208 132.414 95.2485 133.458C95.2776 133.83 95.2893 134.324 94.9519 134.528Z" fill="#E3E8F4"/>
<path opacity="0.1" d="M104.391 240.564C104.391 241.582 104.391 242.606 104.391 243.623C101.972 243.693 99.5 244.048 97.0922 244.205C94.8298 244.368 92.5616 244.374 90.2934 244.345C88.5188 244.388 86.7464 244.193 85.0242 243.763C83.7854 243.402 82.6222 242.809 81.3892 242.437C79.0628 241.722 76.6085 241.809 74.1484 242.1C72.1477 242.332 70.1296 242.681 68.1347 242.861C66.842 243.042 65.5249 242.906 64.2962 242.466C63.9526 242.31 63.622 242.127 63.3075 241.919C62.8157 241.589 62.3028 241.292 61.772 241.029C60.3413 240.39 58.7478 240.494 57.1484 240.646C57.0147 239.824 57.0586 238.984 57.2774 238.182C57.4961 237.379 57.8845 236.633 58.4163 235.993C60.4111 236.214 62.0221 236.208 63.7669 236.284C63.8135 236.034 63.8716 235.783 63.9298 235.533C76.6057 234.724 89.3331 235.506 101.815 237.86C102.728 238.028 103.751 238.29 104.176 239.116C104.361 239.575 104.434 240.071 104.391 240.564Z" fill="black"/>
<path d="M77.9986 125.351C76.7365 125.502 75.3872 125.822 74.573 126.793C74.3364 127.054 74.1844 127.38 74.1368 127.729C74.1852 128.274 74.2905 128.812 74.4509 129.334C74.4638 130.038 74.2784 130.732 73.9158 131.335C73.0725 133.08 72.171 134.86 70.7519 136.168C70.1703 136.709 69.5073 137.157 68.9199 137.686C68.2519 138.319 67.639 139.008 67.0879 139.745C65.8607 141.28 64.5987 142.891 64.1508 144.805C63.3657 148.126 61.7314 151.261 60.6613 154.506C59.5911 157.751 58.9165 161.206 59.4981 164.567C59.7714 166.161 60.324 167.691 60.7078 169.261C61.3243 171.779 61.4988 174.385 62.1502 176.891C62.5631 178.456 63.1563 179.968 63.6042 181.544C64.5808 184.921 64.8442 188.464 64.3777 191.949C63.9415 195.13 64.6743 198.515 63.389 201.452C62.8609 202.535 62.2786 203.591 61.6442 204.616C60.8235 206.123 60.0914 207.676 59.4516 209.269L55.8631 217.737C55.1507 219.331 54.5236 220.961 53.9846 222.622C52.4899 227.484 52.4841 232.666 52.6935 237.744C52.7185 237.902 52.6832 238.064 52.5946 238.197C52.4841 238.313 52.234 238.279 52.2282 238.122C52.1816 238.412 51.9955 238.918 51.9548 239.209C55.0082 240.535 58.7653 238.529 61.807 239.884C62.691 240.279 63.4413 240.936 64.3311 241.32C65.5588 241.765 66.8766 241.903 68.1697 241.722C72.6072 241.355 77.1611 239.977 81.4184 241.291C82.6572 241.669 83.8145 242.263 85.0533 242.623C86.7776 243.053 88.5519 243.248 90.3284 243.205C92.5966 243.24 94.8648 243.234 97.1272 243.065C101.995 242.71 107.107 241.646 111.591 243.577C113.04 242.513 113.15 240.861 113.208 239.07C113.317 235.696 113.425 232.325 113.534 228.956L114.738 191.763C114.908 189.201 114.812 186.628 114.453 184.086C113.633 179.479 111.115 175.362 108.637 171.413L97.069 152.802C96.3013 151.569 97.069 150.19 97.5983 148.835C98.3372 146.891 98.8372 144.864 99.0872 142.798C99.2733 141.28 99.2617 139.57 98.2322 138.442C97.6506 137.808 96.8306 137.453 96.1676 136.907C95.2021 136.116 94.6205 134.993 94.0389 133.935C92.4252 131.024 90.0823 128.583 87.2401 126.851C84.3845 125.193 81.2788 124.961 77.9986 125.351Z" fill="#3F3D56"/>
<path opacity="0.1" d="M89.9327 142.228C85.8208 143.362 83.2734 147.538 82.1451 151.65C80.5632 157.402 80.9471 163.55 82.3429 169.342C83.7387 175.135 86.1233 180.643 88.5369 186.092C89.1022 187.424 89.739 188.725 90.4445 189.989C92.4006 193.41 95.3893 196.123 98.9823 197.741C102.598 199.337 106.68 199.518 110.422 198.247C111.11 198.027 111.758 197.697 112.341 197.27C114.4 195.688 114.72 192.757 114.871 190.163L115.389 181.073C115.442 180.593 115.418 180.109 115.319 179.636C115.086 178.991 114.728 178.399 114.267 177.892C112.563 175.687 111.3 173.175 110.544 170.494C110.015 168.615 109.736 166.655 108.922 164.881C108.433 163.811 107.759 162.834 107.229 161.781C106.066 159.513 105.653 156.972 105.106 154.494C104.63 152.331 104.06 150.188 103.397 148.068C103.091 146.893 102.589 145.778 101.914 144.77C100.314 142.606 97.476 141.827 94.8472 141.28C93.6045 140.915 92.2925 140.851 91.0203 141.094C89.5896 141.484 88.4787 142.589 87.4435 143.647" fill="black"/>
<path d="M90.5144 141.647C86.4026 142.781 83.8552 146.957 82.7269 151.069C81.1449 156.821 81.5288 162.968 82.9246 168.761C84.3205 174.553 86.705 180.061 89.1186 185.511C89.6839 186.843 90.3207 188.144 91.0262 189.407C92.9824 192.828 95.971 195.542 99.564 197.16C103.179 198.756 107.262 198.936 111.004 197.666C111.692 197.445 112.34 197.116 112.923 196.689C114.982 195.107 115.302 192.176 115.453 189.582L115.971 180.491C116.023 180.012 116 179.527 115.901 179.055C115.668 178.41 115.31 177.817 114.848 177.31C113.145 175.105 111.881 172.594 111.126 169.912C110.597 168.034 110.318 166.074 109.503 164.3C109.015 163.23 108.34 162.253 107.811 161.2C106.648 158.932 106.235 156.39 105.688 153.913C105.211 151.749 104.641 149.607 103.978 147.486C103.672 146.311 103.171 145.197 102.495 144.188C100.896 142.025 98.0577 141.245 95.4289 140.699C94.1862 140.333 92.8743 140.269 91.602 140.513C90.1713 140.902 89.0604 142.007 88.0252 143.066" fill="#3F3D56"/>
<path d="M130.633 165.923C129.164 162.854 128.89 159.348 129.865 156.088C132.145 156.669 132.773 160.031 135.099 160.63C135.442 160.717 135.809 160.735 136.158 160.81C137.786 161.142 138.938 162.555 139.781 164.009C141.135 166.244 141.963 168.758 142.2 171.361C142.43 173.974 141.819 176.592 140.456 178.834C140.514 178.747 136.385 174.513 136.036 174.077C135.311 173.227 134.601 172.361 133.907 171.477C133.177 170.658 132.522 169.776 131.947 168.842C131.749 168.47 131.709 168.04 131.534 167.644C131.261 167.057 130.918 166.498 130.633 165.923Z" fill="#CB8C8E"/>
<path d="M120.03 200.132C119.321 205.715 116.778 210.905 112.801 214.887C111.911 215.765 110.8 216.632 109.556 216.51C108.212 216.37 107.288 215.149 106.328 214.183C104.583 212.438 102.257 211.397 100.32 209.874C99.3187 209.049 98.3707 208.161 97.4819 207.216C94.6321 204.308 91.7648 201.4 89.4908 198.009C88.2055 196.101 87.1062 194.054 85.5825 192.333C84.3786 190.966 82.9304 189.838 81.6625 188.535C80.3947 187.232 79.278 185.673 78.9756 183.882C78.6557 181.986 76.6492 180.753 75.3871 179.299C73.8312 177.457 72.7076 175.29 72.0987 172.958C71.4898 170.625 71.4112 168.185 71.8685 165.818C72.0721 164.806 72.4966 163.672 73.4737 163.323C73.8617 163.204 74.272 163.179 74.6718 163.247C77.1261 163.59 78.9465 165.626 80.5342 167.534C81.6228 168.781 82.6236 170.103 83.5294 171.488C85.4662 174.635 86.356 178.299 87.2167 181.893C87.7227 183.993 89.8165 185.545 91.3228 187.093L95.1032 190.972C96.0046 191.896 96.9061 192.827 97.8948 193.659C100.599 195.95 103.845 197.486 107.084 198.893C107.37 197.846 107.8 196.843 108.364 195.915C108.652 195.459 109.033 195.068 109.482 194.767C109.93 194.467 110.437 194.263 110.969 194.171C112.47 193.979 113.842 194.973 115.04 195.915L119.489 199.405C119.739 199.608 120.065 199.829 120.03 200.132Z" fill="#FBBEBE"/>
<path opacity="0.1" d="M127.108 165.422C127.654 166.008 128.086 166.69 128.382 167.435C129.371 169.476 129.817 171.737 129.679 174.001C129.524 175.219 129.256 176.421 128.876 177.589L127.492 182.352C125.34 189.739 123.183 197.142 120.275 204.267C117.884 201.167 113.703 200.231 110.306 198.294C109.971 198.128 109.672 197.897 109.428 197.613C109.128 197.176 108.976 196.655 108.992 196.125C109.028 194.694 109.34 193.284 109.911 191.972C112.028 186.29 114.965 180.741 115.308 174.693C115.321 173.567 115.393 172.443 115.523 171.325C115.769 169.993 116.295 168.729 117.067 167.616C117.84 166.503 118.84 165.567 120.001 164.87C121.955 163.602 125.375 163.724 127.108 165.422Z" fill="black"/>
<path d="M126.527 164.073C127.072 164.659 127.503 165.342 127.8 166.085C128.789 168.126 129.236 170.388 129.097 172.651C128.946 173.886 128.677 175.103 128.295 176.286L126.91 181.05C124.759 188.436 122.601 195.84 119.693 202.964C117.303 199.87 113.121 198.928 109.724 196.991C109.39 196.827 109.091 196.598 108.846 196.316C108.548 195.878 108.396 195.357 108.41 194.828C108.446 193.395 108.758 191.983 109.329 190.669C111.446 184.987 114.383 179.444 114.726 173.39C114.739 172.266 114.811 171.144 114.941 170.028C115.186 168.695 115.712 167.429 116.484 166.315C117.256 165.201 118.257 164.264 119.42 163.567C121.374 162.27 124.793 162.392 126.527 164.073Z" fill="#F4F6FB"/>
<path d="M113.051 133.161C114.214 134.4 114.54 136.191 114.732 137.884C115.232 142.257 115.244 146.771 113.883 150.958C112.522 155.146 109.637 158.978 105.595 160.717C111.225 161.63 117.913 162.2 121.729 157.955C122.473 157.129 123.078 156.134 124.026 155.535C128.068 152.988 133.198 159.705 137.583 157.798C140.491 156.541 140.7 152.61 140.491 149.469L139.694 137.837C139.287 131.899 138.769 125.624 135.367 120.762C132.296 116.359 127.265 113.713 122.153 112.038C118.478 110.875 114.383 110.113 110.806 111.584C106.241 113.457 97.4297 120.936 97.482 126.467C97.5809 134.685 109.213 129.102 113.051 133.161Z" fill="#3F3D56"/>
<path d="M116.517 178.566C117.171 178.592 117.823 178.508 118.448 178.316C119.437 177.95 120.193 177.031 121.257 176.88C121.792 176.804 122.479 176.88 122.711 176.374C122.781 176.138 122.806 175.892 122.787 175.647C122.868 174.233 124.642 173.745 125.84 172.989C126.596 172.459 127.265 171.816 127.824 171.081L131.953 166.202C132.332 165.644 132.884 165.225 133.523 165.009C134.254 164.928 134.987 165.137 135.565 165.591C137.968 167.189 139.893 169.409 141.134 172.014C142.376 174.62 142.887 177.514 142.614 180.387C142.604 180.783 142.5 181.172 142.311 181.521C141.666 182.533 140.148 182.289 139.002 182.649C136.809 183.335 136.14 186.179 134.262 187.5C133.419 188.081 132.378 188.331 131.557 188.936C130.737 189.541 130.109 190.599 129.365 191.42C128.202 192.734 126.544 193.542 124.951 194.328L120.083 196.7C119.125 197.199 118.127 197.615 117.099 197.945C115.324 198.36 113.498 198.515 111.679 198.404L108.113 198.358C107.711 198.394 107.308 198.313 106.95 198.125C106.74 197.968 106.564 197.77 106.433 197.544C104.601 194.793 104.228 191.239 104.88 188C105.421 185.313 106.694 181.602 108.608 179.561C110.271 177.804 114.214 178.613 116.517 178.566Z" fill="#3F3D56"/>
<path d="M102.28 103.209C102.174 102.657 102.247 102.085 102.489 101.576C102.731 101.068 103.128 100.65 103.623 100.383L108.044 97.0619L107.136 95.7417L108.84 94.2819C108.7 94.0879 108.507 93.9385 108.284 93.8518C108.062 93.7651 107.818 93.7448 107.584 93.7934C107.852 91.9962 106.316 90.4783 104.856 89.4081C101.884 87.233 98.4589 85.4242 94.8181 85.18C93.0326 85.0636 91.2413 85.3195 89.4558 85.18C87.048 85.0287 84.71 84.2145 82.2964 84.1215C79.8828 84.0284 77.1725 84.9764 76.1606 87.1458C75.7302 88.0879 75.672 89.1522 75.3463 90.1351C74.6193 92.3103 72.7001 93.8166 71.0658 95.4276C69.4315 97.0387 67.9136 99.1964 68.3672 101.441C68.5459 102.165 68.8259 102.86 69.1989 103.506L78.2136 120.913C78.5151 120.348 78.9476 119.864 79.4748 119.501C80.002 119.137 80.6086 118.906 81.2437 118.825C82.7268 118.651 84.1516 119.314 85.6522 119.5C86.7649 119.621 87.8906 119.473 88.9342 119.069C89.9778 118.664 90.9088 118.014 91.6484 117.173C93.6375 114.882 94.1202 109.031 97.5748 108.45C98.7962 108.24 100.75 109.781 101.815 109.171C103.065 108.484 102.303 104.501 102.28 103.209Z" fill="#3F3D56"/>
<g opacity="0.1">
<path opacity="0.1" d="M109.085 158.938C113.127 157.193 116.006 153.354 117.372 149.173C118.739 144.991 118.722 140.449 118.222 136.098C118.03 134.412 117.71 132.609 116.541 131.376C112.702 127.305 101.07 132.9 100.966 124.723C100.902 120.006 107.317 113.876 112.016 111.009C111.595 111.121 111.181 111.259 110.777 111.421C106.212 113.294 97.4005 120.779 97.4528 126.304C97.5575 134.482 109.189 128.904 113.028 132.964C114.191 134.197 114.517 135.994 114.709 137.686C115.209 142.054 115.22 146.573 113.86 150.755C112.499 154.936 109.614 158.781 105.572 160.52C110.539 161.322 116.326 161.857 120.24 159.06C116.802 159.961 112.725 159.525 109.085 158.938Z" fill="black"/>
<path opacity="0.1" d="M127.515 153.75C127.093 154.03 126.715 154.371 126.393 154.762C129.958 154.995 134.012 159.147 137.583 157.594C138.207 157.321 138.751 156.892 139.164 156.35C135.256 156.198 130.987 151.563 127.515 153.75Z" fill="black"/>
</g>
<g opacity="0.1">
<path opacity="0.1" d="M107.165 91.5417C107.078 91.414 106.985 91.2864 106.892 91.1646C106.89 91.2985 106.881 91.4321 106.863 91.5649C106.962 91.5454 107.063 91.5376 107.165 91.5417Z" fill="black"/>
<path opacity="0.1" d="M108.991 94.282C108.852 94.088 108.659 93.9386 108.436 93.8519C108.213 93.7652 107.969 93.7449 107.735 93.7934C107.8 93.3542 107.76 92.9058 107.619 92.4849L106.415 93.5143L107.322 94.8287L102.902 98.1554C102.407 98.4224 102.009 98.8405 101.768 99.3488C101.526 99.8571 101.453 100.429 101.559 100.982C101.559 102.273 102.344 106.257 101.088 106.972C100.029 107.583 98.0692 106.042 96.8536 106.251C93.399 106.833 92.9162 112.649 90.9272 114.975C90.1875 115.815 89.2566 116.465 88.213 116.87C87.1694 117.275 86.0437 117.423 84.931 117.301C83.4479 117.121 82.023 116.458 80.5225 116.633C79.8869 116.714 79.28 116.946 78.752 117.309C78.224 117.672 77.7902 118.156 77.4866 118.721C74.4894 112.928 71.4923 107.137 68.4951 101.348V101.476C68.6784 102.2 68.9602 102.894 69.3326 103.541L78.3357 120.913C78.6393 120.349 79.0731 119.865 79.6011 119.502C80.1291 119.139 80.736 118.907 81.3716 118.825C82.8547 118.651 84.2796 119.314 85.7801 119.5C86.8929 119.621 88.0186 119.473 89.0622 119.069C90.1058 118.664 91.0367 118.014 91.7763 117.174C93.7654 114.882 94.2481 109.031 97.7028 108.45C98.9183 108.24 100.878 109.781 101.937 109.171C103.193 108.455 102.431 104.472 102.408 103.18C102.345 102.586 102.433 101.986 102.664 101.436C102.94 100.992 103.311 100.617 103.751 100.336L108.171 97.0155L107.264 95.6953L108.991 94.282Z" fill="black"/>
</g>
<path opacity="0.1" d="M58.0149 220.552C57.4333 223.035 57.0669 225.571 56.2701 227.996C55.9211 229.089 55.4908 230.154 55.1476 231.247C54.8394 232.242 54.6067 233.248 54.3683 234.26L53.4203 238.331C53.7073 238.316 53.9871 238.235 54.2374 238.094C54.4877 237.952 54.7017 237.755 54.8626 237.517C55.181 237.038 55.4224 236.512 55.578 235.958L57.1658 231.236L58.3289 227.746C59.9807 222.831 61.6382 217.905 62.8945 212.869C63.2085 211.624 63.4761 210.38 63.7494 209.123C63.8541 208.641 64.616 205.948 63.8366 206.175C63.2841 206.332 62.3478 208.786 62.0919 209.321C61.5103 210.391 61.0334 211.485 60.5623 212.595C59.4856 215.169 58.6333 217.831 58.0149 220.552Z" fill="black"/>
<path d="M88.3507 155.425C88.3507 155.425 85.7219 154.477 85.0763 155.605C85.0763 155.605 89.857 157.35 90.8224 159.862C90.8224 159.862 92.0554 158.594 90.3688 156.983L90.0547 154.622L88.3507 155.425Z" fill="#00A66C"/>
<path d="M92.713 151.859C92.713 151.859 92.8584 150.661 92.2535 150.533C91.6486 150.405 87.5542 150.644 88.2114 155.186C88.8686 159.728 93.6028 158.024 93.6028 158.024L95.6791 155.605C95.6791 155.605 96.1211 152.4 93.2131 151.627L92.713 151.859Z" fill="#01C4D4"/>
<path opacity="0.1" d="M89.4153 149.393C89.4153 149.393 85.8443 151.196 87.5775 155.727L88.921 154.948C88.921 154.948 90.6017 151.016 89.4153 149.393Z" fill="black"/>
<path d="M89.2873 149.301C89.2873 149.301 85.7221 151.103 87.4553 155.634L88.4963 156.245C88.4963 156.245 90.4795 150.923 89.2873 149.301Z" fill="#01C4D4"/>
<path opacity="0.1" d="M95.1149 153.953C95.3021 154.583 95.6851 155.137 96.2083 155.535C97.0458 156.117 95.3766 157.46 95.3766 157.46C95.3766 157.46 93.1201 160.025 90.9856 158.775C89.7119 156.629 90.6716 156.332 90.6716 156.332C90.6716 156.332 93.3353 153.407 95.1149 153.953Z" fill="black"/>
<path d="M95.202 154.075C95.3892 154.705 95.7722 155.26 96.2954 155.657C97.1271 156.239 95.4579 157.582 95.4579 157.582C95.4579 157.582 93.2071 160.147 91.0669 158.897C88.9266 157.646 90.7528 156.46 90.7528 156.46C90.7528 156.46 93.3932 153.529 95.202 154.075Z" fill="#01C4D4"/>
<path d="M87.1063 149.359C87.1063 149.359 84.4659 150.278 84.6753 151.563C84.6753 151.563 89.4909 149.911 91.8231 151.255C91.8231 151.255 91.9801 149.51 89.6595 149.301L87.9148 147.661L87.1063 149.359Z" fill="#5F3839"/>
<path d="M88.223 143.828C88.223 143.828 87.5832 142.804 87.0598 143.083C86.5363 143.362 83.483 146.125 86.8388 149.231C90.1946 152.336 92.8175 148.068 92.8175 148.068L92.8757 144.88C92.8757 144.88 91.2007 142.112 88.4556 143.345L88.223 143.828Z" fill="#01C4D4"/>
<path opacity="0.1" d="M84.1518 144.002C84.1518 144.002 82.5117 147.649 86.7166 150.08L87.2691 148.632C87.2691 148.632 86.0827 144.52 84.1518 144.002Z" fill="black"/>
<path d="M83.9772 144.008C83.9772 144.008 82.3429 147.655 86.542 150.086L87.7343 149.906C87.7343 149.906 85.9256 144.52 83.9772 144.008Z" fill="#01C4D4"/>
<path opacity="0.1" d="M91.4333 143.956C91.9765 144.329 92.624 144.52 93.2827 144.503C94.3063 144.439 93.8643 146.521 93.8643 146.521C93.8643 146.521 93.7247 149.935 91.2762 150.307C88.9499 149.44 89.4966 148.609 89.4966 148.609C89.4966 148.609 89.7059 144.654 91.4333 143.956Z" fill="black"/>
<path d="M91.5614 144.014C92.104 144.388 92.7519 144.58 93.4108 144.561C94.4344 144.497 93.9924 146.579 93.9924 146.579C93.9924 146.579 93.8587 149.993 91.4102 150.365C88.9616 150.737 89.6305 148.667 89.6305 148.667C89.6305 148.667 89.834 144.712 91.5614 144.014Z" fill="#01C4D4"/>
<path d="M78.1324 150.446C78.1324 150.446 78.9699 149.714 79.4294 150.679L79.0397 152.843L76.6377 174.268L75.1023 177.078L78.1324 150.446Z" fill="#00A66C"/>
<path d="M85.2508 145.462L75.1892 178.148L76.1023 178.654L86.0825 145.677L85.2508 145.462Z" fill="#00A66C"/>
<path d="M82.5003 160.281C82.5003 160.281 80.2437 168.813 77.7545 172.215C75.2652 175.618 75.7363 178.438 75.7363 178.438L76.5505 178.688L83.2389 160.874L82.5003 160.281Z" fill="#00A66C"/>
<path d="M90.7238 152.772L76.3701 177.769L77.0563 178.142L91.8579 152.953L90.7238 152.772Z" fill="#00A66C"/>
<path d="M93.8934 159.374L76.0153 178.008L76.5503 178.7L94.6553 159.793L93.8934 159.374Z" fill="#00A66C"/>
<path d="M95.039 160.758C95.039 160.758 94.8006 159.711 93.998 159.909C93.1954 160.106 77.3935 177.653 77.3935 177.653L78.0623 178.177L95.039 160.758Z" fill="#00A66C"/>
<path d="M77.3588 149.318C77.3588 149.318 74.6602 150.051 74.7881 151.348C74.7881 151.348 79.7026 150.033 81.9359 151.534C81.9359 151.534 82.2151 149.789 79.9119 149.434L78.2951 147.69L77.3588 149.318Z" fill="#00A66C"/>
<path d="M78.8707 143.874C78.8707 143.874 78.2891 142.81 77.7366 143.054C77.1841 143.298 73.9563 145.84 77.0852 149.167C80.2142 152.493 83.1338 148.399 83.1338 148.399L83.442 145.223C83.442 145.223 81.9648 142.35 79.1383 143.386L78.8707 143.874Z" fill="#01C4D4"/>
<path opacity="0.1" d="M74.7708 143.77C74.7708 143.77 72.8806 147.294 76.9052 150.01L77.5566 148.603C77.5566 148.603 76.6726 144.415 74.7708 143.77Z" fill="black"/>
<path d="M74.6137 143.764C74.6137 143.764 72.7235 147.288 76.7482 150.004L77.9521 149.911C77.9521 149.911 76.5213 144.409 74.6137 143.764Z" fill="#01C4D4"/>
<path opacity="0.1" d="M82.0523 144.229C82.5713 144.632 83.2044 144.86 83.861 144.881C84.8846 144.881 84.2798 146.934 84.2798 146.934C84.2798 146.934 83.9075 150.33 81.4416 150.534C79.1675 149.51 79.784 148.713 79.784 148.713C79.784 148.713 80.2842 144.805 82.0523 144.229Z" fill="black"/>
<path d="M82.1745 144.299C82.6917 144.708 83.3245 144.944 83.9833 144.973C85.0069 144.973 84.402 147.027 84.402 147.027C84.402 147.027 84.0298 150.417 81.5639 150.621C79.0979 150.824 79.9063 148.806 79.9063 148.806C79.9063 148.806 80.4065 144.88 82.1745 144.299Z" fill="#01C4D4"/>
<path d="M84.239 144.299C84.239 144.299 81.5405 145.032 81.6626 146.329C81.6626 146.329 86.5771 145.014 88.8104 146.509C88.8104 146.509 89.0954 144.764 86.7864 144.415L85.1696 142.67L84.239 144.299Z" fill="#00A66C"/>
<path d="M85.7453 138.867C85.7453 138.867 85.1637 137.802 84.6112 138.047C84.0587 138.291 80.8308 140.833 83.9598 144.159C87.0888 147.486 90.0084 143.392 90.0084 143.392L90.3166 140.216C90.3166 140.216 88.8394 137.343 86.0128 138.378L85.7453 138.867Z" fill="#01C4D4"/>
<path opacity="0.1" d="M81.645 138.762C81.645 138.762 79.7548 142.287 83.7794 145.003L84.4308 143.595C84.4308 143.595 83.57 139.408 81.645 138.762Z" fill="black"/>
<path d="M81.488 138.756C81.488 138.756 79.6036 142.281 83.6225 144.997L84.8264 144.898C84.8264 144.898 83.3956 139.402 81.488 138.756Z" fill="#01C4D4"/>
<path opacity="0.1" d="M88.9325 139.221C89.447 139.631 90.0786 139.865 90.7355 139.89C91.7591 139.89 91.1542 141.943 91.1542 141.943C91.1542 141.943 90.782 145.34 88.316 145.543C86.0478 144.514 86.6585 143.723 86.6585 143.723C86.6585 143.723 87.1587 139.797 88.9325 139.221Z" fill="black"/>
<path d="M89.0546 139.286C89.5691 139.695 90.2007 139.929 90.8576 139.954C91.8812 139.954 91.2763 142.007 91.2763 142.007C91.2763 142.007 90.9041 145.404 88.4381 145.607C85.9722 145.811 86.7806 143.787 86.7806 143.787C86.7806 143.787 87.2808 139.861 89.0546 139.286Z" fill="#01C4D4"/>
<path d="M90.0491 151.278C90.0491 151.278 87.4203 150.33 86.7747 151.458C86.7747 151.458 91.5554 153.203 92.5267 155.716C92.5267 155.716 93.7597 154.448 92.073 152.837L91.759 150.475L90.0491 151.278Z" fill="#00A66C"/>
<path d="M94.411 147.695C94.411 147.695 94.5564 146.497 93.9515 146.369C93.3466 146.241 89.258 146.48 89.8803 151.022C90.5027 155.564 95.2775 153.86 95.2775 153.86L97.3538 151.441C97.3538 151.441 97.79 148.236 94.8821 147.463L94.411 147.695Z" fill="#01C4D4"/>
<path opacity="0.1" d="M91.1307 145.253C91.1307 145.253 87.5597 147.056 89.2986 151.586L90.6363 150.807C90.6363 150.807 92.2939 146.875 91.1307 145.253Z" fill="black"/>
<path d="M90.9912 145.16C90.9912 145.16 87.4202 146.962 89.1533 151.493L90.1944 152.104C90.1944 152.104 92.1776 146.782 90.9912 145.16Z" fill="#01C4D4"/>
<path opacity="0.1" d="M96.813 149.812C97.0031 150.441 97.3855 150.994 97.9064 151.394C98.7439 151.976 97.0747 153.319 97.0747 153.319C97.0747 153.319 94.8181 155.884 92.6837 154.634C91.4158 152.493 92.3696 152.191 92.3696 152.191C92.3696 152.191 95.0333 149.266 96.813 149.812Z" fill="black"/>
<path d="M96.8772 149.934C97.0651 150.566 97.4478 151.121 97.9706 151.522C98.8081 152.104 97.1389 153.441 97.1389 153.441C97.1389 153.441 94.8823 156.006 92.7478 154.762C90.6134 153.517 92.4338 152.319 92.4338 152.319C92.4338 152.319 95.0975 149.388 96.8772 149.934Z" fill="#01C4D4"/>
<path d="M94.2658 158.402C94.2658 158.402 91.637 157.454 90.9973 158.589C90.9973 158.589 95.7721 160.333 96.7434 162.846C96.7434 162.846 97.9764 161.572 96.2898 159.967L95.9757 157.6L94.2658 158.402Z" fill="#00A66C"/>
<path d="M98.6278 154.814C98.6278 154.814 98.7732 153.616 98.1684 153.494C97.5635 153.372 93.4749 153.599 94.1321 158.147C94.7893 162.695 99.5235 160.991 99.5235 160.991L101.6 158.565C101.6 158.565 102.036 155.367 99.128 154.593L98.6278 154.814Z" fill="#01C4D4"/>
<path opacity="0.1" d="M95.3301 152.371C95.3301 152.371 91.7591 154.174 93.4981 158.711L94.8357 157.931C94.8357 157.931 96.5223 153.994 95.3301 152.371Z" fill="black"/>
<path d="M95.202 152.278C95.202 152.278 91.631 154.081 93.3642 158.612L94.4052 159.223C94.4052 159.223 96.3943 153.901 95.202 152.278Z" fill="#01C4D4"/>
<path opacity="0.1" d="M101.018 156.931C101.205 157.561 101.585 158.117 102.105 158.519C102.943 159.1 101.274 160.438 101.274 160.438C101.274 160.438 99.0172 163.003 96.8828 161.758C95.6149 159.612 96.5687 159.316 96.5687 159.316C96.5687 159.316 99.2731 156.384 101.018 156.931Z" fill="black"/>
<path d="M101.094 157.059C101.281 157.689 101.664 158.243 102.187 158.641C103.025 159.223 101.355 160.566 101.355 160.566C101.355 160.566 99.0988 163.131 96.9643 161.881C94.8299 160.63 96.6503 159.438 96.6503 159.438C96.6503 159.438 99.314 156.512 101.094 157.059Z" fill="#01C4D4"/>
<path d="M94.8006 160.793C94.8006 160.793 92.1718 159.845 91.5262 160.979C91.5262 160.979 96.3069 162.724 97.2724 165.236C97.2724 165.236 98.5112 163.963 96.8246 162.357L96.5047 159.99L94.8006 160.793Z" fill="#00A66C"/>
<path d="M99.1627 157.204C99.1627 157.204 99.3081 156.012 98.7033 155.884C98.0984 155.756 94.0098 155.989 94.6612 160.537C95.3126 165.085 100.053 163.381 100.053 163.381L102.129 160.962C102.129 160.962 102.571 157.757 99.6629 156.983L99.1627 157.204Z" fill="#01C4D4"/>
<path opacity="0.1" d="M95.8653 154.768C95.8653 154.768 92.2943 156.565 94.0391 161.101L95.3825 160.322C95.3825 160.322 97.0517 156.384 95.8653 154.768Z" fill="black"/>
<path d="M95.7372 154.669C95.7372 154.669 92.1721 156.472 93.9052 161.002L94.9463 161.619C94.9463 161.619 96.947 156.291 95.7372 154.669Z" fill="#01C4D4"/>
<path opacity="0.1" d="M101.565 159.322C101.753 159.953 102.136 160.509 102.658 160.909C103.496 161.491 101.827 162.829 101.827 162.829C101.827 162.829 99.57 165.399 97.4356 164.149C96.1619 162.003 97.1215 161.706 97.1215 161.706C97.1215 161.706 99.7852 158.775 101.565 159.322Z" fill="black"/>
<path d="M101.629 159.449C101.816 160.079 102.199 160.634 102.722 161.031C103.559 161.613 101.884 162.956 101.884 162.956C101.884 162.956 99.6337 165.521 97.4993 164.271C95.3648 163.02 97.1794 161.828 97.1794 161.828C97.1794 161.828 99.8547 158.903 101.629 159.449Z" fill="#01C4D4"/>
<path d="M81.994 159.234C81.994 159.234 79.3652 158.28 78.7197 159.414C78.7197 159.414 83.5004 161.159 84.4658 163.672C84.4658 163.672 85.6988 162.404 84.0122 160.793L83.6981 158.426L81.994 159.234Z" fill="#00A66C"/>
<path d="M86.356 155.64C86.356 155.64 86.5014 154.448 85.8965 154.32C85.2917 154.192 81.1972 154.43 81.8544 158.972C82.5116 163.515 87.2458 161.816 87.2458 161.816L89.3221 159.397C89.3221 159.397 89.7641 156.192 86.8562 155.419L86.356 155.64Z" fill="#01C4D4"/>
<path opacity="0.1" d="M83.0583 153.203C83.0583 153.203 79.499 155.006 81.2438 159.537L82.5873 158.757C82.5873 158.757 84.2448 154.826 83.0583 153.203Z" fill="black"/>
<path d="M82.9303 153.11C82.9303 153.11 79.3651 154.907 81.0983 159.444L82.1393 160.025C82.1393 160.025 84.1516 154.733 82.9303 153.11Z" fill="#01C4D4"/>
<path opacity="0.1" d="M88.7582 157.757C88.9447 158.389 89.3277 158.945 89.8516 159.345C90.6891 159.926 89.02 161.27 89.02 161.27C89.02 161.27 86.7634 163.835 84.6289 162.584C83.3552 160.438 84.3149 160.141 84.3149 160.141C84.3149 160.141 86.9786 157.21 88.7582 157.757Z" fill="black"/>
<path d="M88.8044 157.885C88.9916 158.515 89.3746 159.069 89.8978 159.467C90.7295 160.048 89.0603 161.392 89.0603 161.392C89.0603 161.392 86.8096 163.957 84.6693 162.706C82.529 161.456 84.3552 160.264 84.3552 160.264C84.3552 160.264 87.0596 157.338 88.8044 157.885Z" fill="#01C4D4"/>
<path d="M83.4306 151.4C83.4306 151.4 80.796 150.446 80.1562 151.58C80.1562 151.58 84.937 153.325 85.9024 155.838C85.9024 155.838 87.1354 154.57 85.4488 152.959L85.1347 150.592L83.4306 151.4Z" fill="#00A66C"/>
<path d="M87.7926 147.789C87.7926 147.789 87.938 146.625 87.3331 146.468C86.7283 146.311 82.6338 146.579 83.262 151.121C83.8901 155.663 88.6533 153.965 88.6533 153.965L90.7296 151.546C90.7296 151.546 91.1658 148.341 88.2579 147.568L87.7926 147.789Z" fill="#01C4D4"/>
<path opacity="0.1" d="M84.4891 145.369C84.4891 145.369 80.9239 147.166 82.657 151.703L84.0005 150.923C84.0005 150.923 85.6813 146.992 84.4891 145.369Z" fill="black"/>
<path d="M84.3669 145.276C84.3669 145.276 80.7959 147.073 82.5349 151.609L83.5701 152.22C83.5701 152.22 85.5591 146.899 84.3669 145.276Z" fill="#01C4D4"/>
<path opacity="0.1" d="M90.1945 149.923C90.3824 150.554 90.7651 151.11 91.2879 151.511C92.1254 152.092 90.4562 153.436 90.4562 153.436C90.4562 153.436 88.1997 156.001 86.0652 154.75C84.7915 152.604 85.7511 152.307 85.7511 152.307C85.7511 152.307 88.409 149.376 90.1945 149.923Z" fill="black"/>
<path d="M90.2526 150.051C90.4398 150.681 90.8228 151.235 91.346 151.633C92.1835 152.214 90.5144 153.558 90.5144 153.558C90.5144 153.558 88.2578 156.123 86.1233 154.872C83.9889 153.622 85.8093 152.429 85.8093 152.429C85.8093 152.429 88.473 149.533 90.2526 150.051Z" fill="#01C4D4"/>
<path d="M74.6718 163.247C74.6718 163.247 81.8777 164.044 85.7918 176.577C89.706 189.111 77.3936 179.735 77.3936 179.735C77.3936 179.735 74.1483 180.387 73.6423 173.844C73.1364 167.301 74.6718 163.247 74.6718 163.247Z" fill="#FBBEBE"/>
<path d="M75.4713 172.447L73.7488 173.211C73.5462 173.301 73.4543 173.537 73.5435 173.738C73.6327 173.939 73.8693 174.029 74.0719 173.939L75.7944 173.175C75.997 173.085 76.0889 172.849 75.9997 172.648C75.9105 172.447 75.6739 172.357 75.4713 172.447Z" fill="#E3E8F4"/>
<path opacity="0.1" d="M45.0047 125.99L43.8415 124.932C39.6656 121.093 36.9031 118.604 36.9031 115.498C36.8929 114.908 37.0013 114.321 37.2219 113.774C37.4425 113.226 37.7707 112.728 38.1872 112.309C38.6037 111.89 39.1 111.56 39.6466 111.336C40.1933 111.113 40.7792 111.001 41.3697 111.008C42.0666 111.012 42.7543 111.167 43.385 111.464C44.0158 111.76 44.5744 112.19 45.0221 112.724C45.469 112.189 46.0275 111.758 46.6584 111.462C47.2893 111.166 47.9775 111.011 48.6745 111.008C49.2645 111.002 49.8498 111.114 50.3958 111.338C50.9418 111.562 51.4373 111.893 51.8532 112.311C52.2691 112.73 52.5968 113.227 52.817 113.775C53.0372 114.322 53.1455 114.908 53.1354 115.498C53.1354 118.604 50.3786 121.093 46.1969 124.932L45.0047 125.99Z" fill="#01C4D4"/>
<path opacity="0.1" d="M28.7723 60.0027L27.6091 58.9384C23.4275 55.1057 20.6649 52.6106 20.6649 49.5107C20.6547 48.9203 20.7632 48.3338 20.9837 47.786C21.2043 47.2382 21.5326 46.7402 21.9491 46.3215C22.3656 45.9029 22.8618 45.572 23.4085 45.3486C23.9551 45.1252 24.541 45.0137 25.1315 45.0208C25.8284 45.0244 26.5161 45.1798 27.1469 45.476C27.7776 45.7723 28.3363 46.2025 28.784 46.7365C29.2314 46.2022 29.79 45.7718 30.4208 45.4755C31.0516 45.1792 31.7394 45.024 32.4364 45.0208C33.0264 45.0145 33.6117 45.1266 34.1576 45.3503C34.7036 45.5741 35.1992 45.9051 35.615 46.3236C36.0309 46.7422 36.3586 47.2399 36.5789 47.7873C36.7991 48.3348 36.9073 48.9208 36.8972 49.5107C36.8972 52.6106 34.1404 55.1057 29.9588 58.9384L28.7723 60.0027Z" fill="#01C4D4"/>
<path opacity="0.1" d="M150.581 91.6355L149.418 90.5712C145.237 86.7385 142.48 84.2434 142.48 81.1435C142.47 80.5536 142.578 79.9676 142.798 79.4202C143.018 78.8728 143.346 78.375 143.762 77.9565C144.178 77.5379 144.673 77.2069 145.219 76.9831C145.765 76.7594 146.351 76.6473 146.941 76.6536C147.638 76.6568 148.325 76.812 148.956 77.1083C149.587 77.4046 150.146 77.835 150.593 78.3693C151.041 77.8353 151.599 77.4052 152.23 77.1089C152.861 76.8126 153.549 76.6572 154.245 76.6536C154.836 76.6465 155.422 76.758 155.968 76.9814C156.515 77.2049 157.011 77.5357 157.428 77.9544C157.844 78.373 158.173 78.871 158.393 79.4188C158.614 79.9666 158.722 80.5531 158.712 81.1435C158.712 84.2434 155.949 86.7385 151.774 90.5712L150.581 91.6355Z" fill="#01C4D4"/>
<path d="M344.706 104.053C339.873 103.907 339.262 111.235 344.072 111.613C345.334 111.712 346.607 111.741 347.817 111.776C362.613 112.177 376.606 117.546 390.047 123.315C393.35 124.728 396.811 126.316 398.771 129.346C392.71 122.32 384.731 117.173 376.24 113.387C367.748 109.601 358.71 107.123 349.672 104.803C348.049 104.372 346.384 104.121 344.706 104.053Z" fill="#01C4D4"/>
<path opacity="0.2" d="M346.055 122.064C343.008 122.181 343.694 126.514 346.765 126.543C347.567 126.543 348.37 126.514 349.138 126.479C358.443 126.101 368.028 128.677 377.298 131.51C379.572 132.202 381.98 132.993 383.632 134.697C378.805 130.817 373.047 128.119 367.173 126.246C361.299 124.373 355.268 123.292 349.26 122.309C348.202 122.123 347.129 122.041 346.055 122.064Z" fill="#01C4D4"/>
<path opacity="0.2" d="M351.615 79.649C349.777 79.3292 349.638 82.0045 351.47 82.4116C351.953 82.5163 352.435 82.5977 352.895 82.6791C358.519 83.6388 363.899 86.3897 369.075 89.257C370.348 89.9607 371.68 90.74 372.454 91.9672C369.997 89.0706 367.028 86.6515 363.695 84.831C360.416 83.0313 357.008 81.4762 353.5 80.1783C352.891 79.9382 352.26 79.7608 351.615 79.649Z" fill="#01C4D4"/>
<path d="M323.257 150.557C318.604 152.959 322.536 159.542 327.328 157.356C328.578 156.774 329.806 156.146 330.969 155.535C345.212 148.149 361.758 145.433 378.025 143.322C382.021 142.81 386.278 142.362 389.971 143.944C379.904 141.1 369.185 140.867 358.821 142.071C348.457 143.275 338.378 145.875 328.398 148.614C326.623 149.087 324.901 149.738 323.257 150.557Z" fill="#01C4D4"/>
<path opacity="0.5" d="M336.563 176.188C333.213 179.311 338.442 183.004 341.955 180.003C342.874 179.218 343.752 178.386 344.589 177.601C354.796 168.022 368.284 161.2 381.713 154.919C385.01 153.377 398.579 151.801 402.196 151.889C392.74 152.732 373.413 155.686 364.823 159.595C356.233 163.503 348.277 168.348 340.443 173.274C339.062 174.123 337.763 175.098 336.563 176.188Z" fill="#01C4D4"/>
<path d="M360.461 217.103C359.484 221.569 365.882 221.633 367.068 217.167C367.376 216.004 367.65 214.84 367.865 213.677C370.819 200.016 378.037 186.755 385.516 173.96C387.348 170.82 397.619 161.811 400.638 159.822C393.333 165.899 379.119 179.317 374.268 187.412C369.418 195.508 365.643 203.988 361.997 212.491C361.345 213.978 360.831 215.522 360.461 217.103Z" fill="#01C4D4"/>
<path d="M372.215 67.9532C372.336 68.0232 372.472 68.0631 372.611 68.0695C372.861 68.0695 373.041 67.8136 373.146 67.581C373.728 66.348 373.39 64.7428 374.263 63.6959C375.154 64.768 375.872 65.9729 376.391 67.2669L379.741 66.2317C379.898 66.8803 379.923 67.554 379.815 68.2126C379.706 68.8711 379.465 69.5009 379.107 70.0644C379.694 70.3205 380.229 70.6834 380.683 71.1345C380.909 71.3635 381.067 71.6503 381.14 71.9633C381.213 72.2763 381.198 72.6033 381.096 72.9084C380.322 73.0961 379.525 73.1744 378.729 73.141C378.856 74.611 378.772 76.0916 378.479 77.5378C378.474 77.6491 378.446 77.758 378.397 77.858C378.348 77.958 378.279 78.0469 378.194 78.1194C378.058 78.1733 377.909 78.1888 377.765 78.1642C377.62 78.1396 377.485 78.0758 377.374 77.9799C376.219 77.2679 375.27 76.2652 374.623 75.0719L373.379 77.9973C373.286 78.3103 373.078 78.5764 372.797 78.7418C372.609 78.8089 372.404 78.8104 372.215 78.746C372.026 78.6816 371.864 78.555 371.756 78.387C371.55 78.0428 371.423 77.6576 371.384 77.2587L370.918 74.4263C370.912 74.2799 370.859 74.1394 370.767 74.025C370.626 73.9395 370.46 73.9047 370.296 73.9262C369.133 73.8913 367.952 73.8796 366.754 73.8913C366.551 73.2631 367.179 72.6757 367.778 72.414C368.377 72.1523 369.104 71.9487 369.406 71.3613C370.023 70.1691 368.423 68.5057 369.104 67.4705C369.895 66.2491 371.186 67.4414 372.215 67.9532Z" fill="#01C4D4"/>
<path opacity="0.2" d="M347.613 196.142C346.177 198.573 349.701 198.41 351.254 195.973C351.656 195.339 352.028 194.7 352.388 194.089C356.756 186.656 363.404 179.305 370.104 172.204C371.744 170.459 373.523 168.627 375.594 167.464C370.353 171.026 365.52 175.155 361.182 179.776C356.884 184.272 353.086 188.954 349.37 193.63C348.729 194.427 348.142 195.266 347.613 196.142Z" fill="#01C4D4"/>
<path d="M380.864 219.615C380.699 219.716 380.51 219.773 380.317 219.778C379.962 219.778 379.735 219.423 379.567 219.103C378.776 217.359 379.229 215.143 378.008 213.689C376.767 215.182 375.766 216.86 375.042 218.661L370.389 217.219C370.169 218.123 370.134 219.061 370.286 219.979C370.438 220.896 370.774 221.774 371.273 222.558C370.453 222.914 369.707 223.421 369.075 224.053C368.759 224.371 368.537 224.77 368.435 225.207C368.332 225.643 368.352 226.099 368.493 226.525C369.57 226.787 370.678 226.896 371.785 226.85C371.613 228.9 371.73 230.964 372.134 232.98C372.161 233.282 372.305 233.562 372.535 233.76C372.878 233.975 373.326 233.76 373.698 233.568C375.311 232.569 376.635 231.165 377.537 229.497L379.282 233.638C379.403 234.066 379.679 234.435 380.055 234.673C380.319 234.763 380.605 234.763 380.868 234.673C381.132 234.582 381.357 234.406 381.509 234.173C381.799 233.696 381.974 233.158 382.021 232.602L382.672 228.659C382.676 228.446 382.751 228.241 382.888 228.077C383.083 227.927 383.328 227.856 383.574 227.88C385.222 227.833 386.868 227.816 388.512 227.827C388.797 226.955 387.93 226.141 387.081 225.774C386.232 225.408 385.237 225.123 384.818 224.309C383.958 222.64 386.179 220.325 385.237 218.888C384.097 217.242 382.3 218.906 380.864 219.615Z" fill="#01C4D4"/>
<path d="M333.685 116.156C333.518 116.257 333.327 116.313 333.132 116.318C332.783 116.318 332.551 115.964 332.388 115.638C331.591 113.893 332.05 111.677 330.829 110.223C329.577 111.722 328.569 113.408 327.84 115.219L323.187 113.777C322.967 114.681 322.932 115.62 323.083 116.538C323.234 117.457 323.568 118.335 324.065 119.122C323.247 119.479 322.504 119.986 321.873 120.616C321.558 120.934 321.338 121.333 321.235 121.768C321.132 122.203 321.152 122.658 321.291 123.082C322.37 123.343 323.479 123.455 324.589 123.414C324.414 125.461 324.531 127.524 324.938 129.538C324.949 129.688 324.99 129.835 325.059 129.968C325.128 130.102 325.223 130.221 325.339 130.317C325.682 130.538 326.13 130.317 326.473 130.131C328.088 129.135 329.412 127.731 330.311 126.06L332.056 130.201C332.179 130.629 332.451 130.998 332.824 131.242C333.088 131.332 333.375 131.331 333.638 131.239C333.902 131.148 334.127 130.971 334.278 130.736C334.569 130.259 334.746 129.722 334.796 129.166L335.441 125.223C335.452 125.011 335.527 124.809 335.656 124.641C335.854 124.49 336.101 124.42 336.348 124.443C337.996 124.397 339.642 124.381 341.286 124.397C341.565 123.518 340.705 122.704 339.85 122.338C338.995 121.971 338.012 121.692 337.587 120.872C336.732 119.209 338.954 116.888 338.006 115.452C336.918 113.777 335.121 115.44 333.685 116.156Z" fill="#01C4D4"/>
<path opacity="0.5" d="M350.731 87.7157C350.644 87.77 350.543 87.8001 350.44 87.8029C350.254 87.8029 350.12 87.611 350.045 87.4424C349.62 86.5293 349.865 85.337 349.213 84.5635C348.554 85.3589 348.023 86.2515 347.637 87.2097L345.159 86.442C345.043 86.9224 345.024 87.4215 345.105 87.9092C345.186 88.3969 345.365 88.8632 345.631 89.2802C345.197 89.4686 344.802 89.737 344.467 90.0712C344.302 90.2422 344.187 90.4548 344.134 90.6864C344.081 90.918 344.091 91.1597 344.165 91.3856C344.736 91.5244 345.323 91.5831 345.91 91.56C345.817 92.6471 345.88 93.7418 346.096 94.8112C346.1 94.8917 346.12 94.9704 346.157 95.0425C346.193 95.1146 346.243 95.1784 346.305 95.2299C346.403 95.266 346.508 95.2753 346.61 95.2569C346.713 95.2385 346.808 95.193 346.887 95.1252C347.744 94.5965 348.448 93.8526 348.928 92.9675L349.847 95.1659C349.907 95.4049 350.054 95.6126 350.26 95.7475C350.4 95.7949 350.553 95.7943 350.693 95.7459C350.833 95.6975 350.952 95.6039 351.034 95.48C351.185 95.2241 351.278 94.9383 351.307 94.6425L351.685 92.5371C351.693 92.4287 351.733 92.3253 351.801 92.2405C351.907 92.1628 352.037 92.1256 352.168 92.1358C353.04 92.1358 353.912 92.1358 354.785 92.1358C354.936 91.6705 354.471 91.2402 354.029 91.0424C353.587 90.8447 353.046 90.6993 352.825 90.2631C352.365 89.3791 353.546 88.1461 353.046 87.3842C352.447 86.4537 351.499 87.3377 350.731 87.7157Z" fill="#01C4D4"/>
<path opacity="0.5" d="M359.787 132.248C359.699 132.303 359.599 132.333 359.496 132.335C359.304 132.335 359.176 132.144 359.094 131.975C358.676 131.056 358.92 129.869 358.269 129.096C357.608 129.89 357.076 130.783 356.692 131.742L354.215 130.975C354.099 131.455 354.08 131.953 354.16 132.441C354.24 132.928 354.417 133.395 354.68 133.813C354.247 134.002 353.852 134.27 353.517 134.604C353.35 134.774 353.234 134.986 353.18 135.218C353.127 135.45 353.139 135.692 353.215 135.918C353.785 136.057 354.372 136.116 354.959 136.093C354.867 137.18 354.93 138.274 355.145 139.344C355.136 139.442 355.16 139.54 355.212 139.624C355.264 139.708 355.342 139.773 355.434 139.808C355.526 139.844 355.627 139.848 355.722 139.821C355.817 139.794 355.9 139.737 355.96 139.658C356.816 139.13 357.519 138.386 357.995 137.5L358.92 139.698C358.981 139.936 359.128 140.143 359.333 140.28C359.472 140.327 359.624 140.326 359.763 140.278C359.902 140.229 360.02 140.136 360.101 140.012C360.257 139.759 360.35 139.472 360.374 139.175L360.723 137.081C360.729 136.973 360.767 136.87 360.833 136.785C360.939 136.706 361.069 136.669 361.2 136.68C362.072 136.68 362.945 136.645 363.823 136.68C363.974 136.215 363.509 135.784 363.061 135.587C362.613 135.389 362.084 135.243 361.863 134.807C361.403 133.923 362.584 132.69 362.084 131.928C361.502 130.986 360.548 131.87 359.787 132.248Z" fill="#01C4D4"/>
</g>
</g>
<defs>
<linearGradient id="paint0_linear_64_2" x1="146.853" y1="385.672" x2="146.853" y2="82.1556" gradientUnits="userSpaceOnUse">
<stop stop-color="#808080" stop-opacity="0.25"/>
<stop offset="0.54" stop-color="#808080" stop-opacity="0.12"/>
<stop offset="1" stop-color="#808080" stop-opacity="0.1"/>
</linearGradient>
<clipPath id="clip0_64_2">
<rect width="375" height="405" fill="white"/>
</clipPath>
<clipPath id="clip1_64_2">
<rect width="665.343" height="409" fill="white" transform="translate(-88 -16)"/>
</clipPath>
</defs>
</svg>
