<svg width="375" height="409" viewBox="0 0 375 409" fill="none" xmlns="http://www.w3.org/2000/svg">
<g clip-path="url(#clip0_2_4748)">
<path d="M366.269 0.000518995H223.006C216.093 0.000516344 209.385 2.35382 203.986 6.67361C198.587 10.9934 194.818 17.0226 193.297 23.7701L120.909 345.022C120.12 348.526 120.106 352.161 120.868 355.671C121.631 359.181 123.152 362.481 125.324 365.341C127.497 368.201 130.268 370.55 133.444 372.225C136.62 373.9 140.124 374.86 143.71 375.036L290.984 382.296C298.87 382.685 306.629 380.189 312.811 375.276C318.993 370.362 323.178 363.365 324.583 355.592L365.646 128.463L368.701 129.336L376.558 86.2863L373.413 85.5L384.875 22.1002C385.366 19.3847 385.252 16.5942 384.541 13.9277C383.831 11.2612 382.542 8.78442 380.764 6.67385C378.988 4.56331 376.767 2.87096 374.261 1.71745C371.756 0.563952 369.026 -0.0222926 366.269 0.000518995Z" fill="#3F3D56"/>
<path d="M241.861 6.9259H225.138C220.336 6.9259 215.678 8.56926 211.937 11.5832C208.197 14.5971 205.599 18.8003 204.576 23.495L135.094 342.126C134.693 343.961 134.693 345.86 135.095 347.694C135.496 349.528 136.287 351.255 137.416 352.755C138.545 354.255 139.983 355.494 141.634 356.386C143.285 357.279 145.109 357.805 146.982 357.928L293.78 367.554C297.922 367.826 302.018 366.562 305.288 364.004C308.558 361.446 310.771 357.774 311.507 353.687L370.797 24.3508C371.181 22.2192 371.092 20.0294 370.538 17.9357C369.983 15.842 368.976 13.8957 367.587 12.2339C366.2 10.5722 364.463 9.23557 362.502 8.31846C360.541 7.40129 358.403 6.9259 356.238 6.9259H340.373C338.838 6.9259 337.345 7.43238 336.126 8.36689C334.908 9.3014 334.031 10.6118 333.632 12.0952C333.28 13.4048 332.505 14.5617 331.429 15.3867C330.353 16.2117 329.036 16.6588 327.681 16.6588H252.366C249.712 16.6588 247.155 15.6564 245.208 13.8519C243.26 12.0474 242.065 9.57388 241.861 6.9259Z" fill="#01C4D4"/>
<path d="M-60.0298 233.974V297.248C-73.0632 279.179 -99.0584 260.574 -147.771 245.472L-60.0298 366.055V366.971C-60.0298 366.971 -59.8643 366.882 -59.5559 366.707L-59.4065 366.912C-59.4065 366.912 -59.2808 366.745 -59.057 366.421C-48.8345 360.496 36.9002 307.077 -60.0298 233.974Z" fill="#3F3D56"/>
<path d="M376.551 235.433C383.785 235.433 389.65 231.44 389.65 226.512C389.65 221.586 383.785 217.592 376.551 217.592C369.317 217.592 363.452 221.586 363.452 226.512C363.452 231.44 369.317 235.433 376.551 235.433Z" fill="#01C4D4"/>
<path d="M417.484 233.974V297.248C404.451 279.179 378.456 260.574 329.743 245.472L417.484 366.055V366.971C417.484 366.971 417.65 366.882 417.958 366.707L418.108 366.912C418.108 366.912 418.233 366.745 418.457 366.421C428.683 360.496 514.414 307.077 417.484 233.974Z" fill="#3F3D56"/>
<path d="M267.875 348.503C274.752 361.263 289.347 366.741 289.347 366.741C289.347 366.741 292.793 351.53 285.916 338.77C279.039 326.01 264.444 320.532 264.444 320.532C264.444 320.532 260.998 335.742 267.875 348.503Z" fill="#3F3D56"/>
<path d="M272.605 344.304C285.021 351.778 289.803 366.623 289.803 366.623C289.803 366.623 274.454 369.35 262.039 361.877C249.623 354.403 244.841 339.558 244.841 339.558C244.841 339.558 260.19 336.831 272.605 344.304Z" fill="#3F3D56"/>
<path d="M99.9718 338.971C106.849 351.731 121.444 357.209 121.444 357.209C121.444 357.209 124.889 341.999 118.012 329.238C111.136 316.478 96.5405 311 96.5405 311C96.5405 311 93.0955 326.211 99.9718 338.971Z" fill="#3F3D56"/>
<path d="M104.702 334.773C117.118 342.247 121.9 357.092 121.9 357.092C121.9 357.092 106.551 359.819 94.1361 352.345C81.7202 344.872 76.9385 330.027 76.9385 330.027C76.9385 330.027 92.2868 327.3 104.702 334.773Z" fill="#01C4D4"/>
<path d="M25.5504 338.971C32.4273 351.731 47.0223 357.209 47.0223 357.209C47.0223 357.209 50.4679 341.999 43.591 329.238C36.7141 316.478 22.1191 311 22.1191 311C22.1191 311 18.6741 326.211 25.5504 338.971Z" fill="#D0CDE1"/>
<path d="M30.2771 334.773C42.693 342.247 47.4746 357.092 47.4746 357.092C47.4746 357.092 32.1264 359.819 19.7111 352.345C7.2952 344.872 2.51353 330.027 2.51353 330.027C2.51353 330.027 17.8618 327.3 30.2771 334.773Z" fill="#01C4D4"/>
<path d="M545.064 376.036C545.064 376.036 527.941 370.959 493.878 366.079L494.491 355.651C499.617 296.931 459.44 209.449 459.44 209.449C474.914 252.971 482.589 298.885 482.113 345.077C476.784 336.04 466.591 326.347 447.151 320.562C447.151 320.562 472.604 341.854 480.1 364.241C454.415 361.064 421.135 358.277 380.327 357.46L388.737 337.426L372.337 354.251C372.337 354.251 364.873 304.486 350.195 302.715L361.554 351.453C361.554 351.453 348.731 341.838 345.813 342.852L353.221 357.223C348.666 357.233 344.03 357.268 339.315 357.328C342.831 298.68 304.038 214.215 304.038 214.215C319.515 257.737 327.191 303.651 326.715 349.843C321.387 340.806 311.19 331.112 291.751 325.328C291.751 325.328 309.252 339.968 319.503 357.733C293.727 358.447 265.757 359.951 235.604 362.49C232.103 362.388 228.545 362.299 224.927 362.226L228.863 352.85L230.386 349.896C230.302 349.869 230.215 349.851 230.127 349.841L233.337 342.192L222.907 352.891C220.564 354.313 218.213 355.931 216.62 357.064C216.45 356.061 216.212 354.709 215.905 353.09L226.003 309.759C219.498 310.544 214.411 320.756 210.762 331.886C207.073 319.909 201.743 308.319 194.795 307.481L205.378 352.888C205.206 353.744 205.048 354.553 204.906 355.305C201.654 352.96 192.999 346.956 190.51 347.597L187.462 344.47L194.82 362C191.291 362.017 187.716 362.047 184.094 362.092C183.493 362.025 182.892 361.958 182.292 361.892L187.604 349.235L175.939 361.204C174.039 361.002 172.146 360.804 170.262 360.609C167.835 347.643 160.727 315.932 149.063 314.525L159.554 359.54C157.818 359.373 156.09 359.209 154.368 359.049C150.622 356.61 146.239 354.12 144.68 354.662L146.575 358.337C99.8636 354.197 58.2784 352.536 21.8452 352.457L29.2532 338.086C26.3352 337.072 13.512 346.687 13.512 346.687L24.8711 297.949C15.743 299.051 9.40614 318.711 5.91829 333.422C2.6394 325.796 -1.44801 319.881 -6.33685 319.29L0.0625153 346.749L-13.6704 332.66L-5.26096 352.695C-46.0685 353.511 -79.3461 356.298 -105.031 359.475C-97.5386 337.089 -72.0846 315.796 -72.0846 315.796C-91.5238 321.581 -101.72 331.274 -107.048 340.311C-107.525 294.119 -99.8481 248.205 -84.3719 204.683C-84.3719 204.683 -124.551 292.165 -119.425 350.885L-118.811 361.313C-152.875 366.193 -170 371.27 -170 371.27L-3.53847 373.358L-2.06427 376.218C-23.9583 379.125 -46.7604 382.577 -70.4704 386.573L389.667 380.801C389.667 380.801 386.074 379.738 378.931 378.119L545.064 376.036Z" fill="#3F3D56"/>
<path d="M-38.2749 408.369C-38.2749 408.369 71.2788 392.284 139.154 408.369H-38.2749Z" fill="#3F3D56"/>
<path d="M281.279 307.06C280.995 307.06 280.711 307.051 280.427 307.032L270.273 306.365L170.776 299.842C169.122 299.736 167.519 299.231 166.102 298.371C164.685 297.511 163.496 296.322 162.637 294.904C161.243 292.638 160.784 289.918 161.356 287.319L213.258 49.317C214.066 45.6863 216.083 42.4381 218.979 40.105C221.875 37.7718 225.476 36.492 229.194 36.4753H327.12C328.824 36.476 330.507 36.8507 332.05 37.573C333.594 38.2953 334.96 39.3477 336.053 40.6558C337.145 41.9639 337.938 43.496 338.374 45.1438C338.81 46.7918 338.88 48.5154 338.578 50.1932L294.292 296.184C293.884 298.444 292.896 300.558 291.425 302.321L291.302 302.618L291.174 302.618C290.087 303.842 288.784 304.854 287.329 305.603L287.257 305.636C285.404 306.573 283.355 307.061 281.279 307.06ZM229.194 37.6668C225.748 37.6822 222.409 38.8686 219.725 41.0315C217.041 43.1943 215.171 46.2053 214.421 49.571L162.519 287.573C162.045 289.775 162.397 292.075 163.508 294.035C164.619 295.995 166.412 297.477 168.545 298.2C169.293 298.45 170.07 298.602 170.857 298.653L280.503 305.843C282.647 305.984 284.79 305.547 286.709 304.578L286.777 304.546C288.091 303.871 289.27 302.96 290.255 301.858L290.449 301.631C291.822 300.013 292.744 298.061 293.121 295.972L337.406 49.982L337.992 50.0876L337.406 49.982C337.677 48.4758 337.614 46.9285 337.222 45.4491C336.831 43.9698 336.119 42.5945 335.139 41.4201C334.158 40.2458 332.931 39.3011 331.546 38.6525C330.16 38.004 328.65 37.6676 327.12 37.6668H229.194Z" fill="#3F3D56"/>
<path d="M94.9354 388.198C94.9354 388.198 103.366 395.301 107.803 394.857C112.24 394.413 120.67 394.413 117.121 399.297C113.571 404.18 98.9288 406.843 92.717 407.288C86.5052 407.731 72.7502 408.175 73.638 405.512C74.5251 402.848 75.4129 390.418 78.962 389.53C82.5118 388.642 94.9354 388.198 94.9354 388.198Z" fill="#575A89"/>
<path d="M46.5479 381.224C46.5479 381.224 52.7603 390.333 57.1532 391.098C61.5467 391.864 69.6667 394.131 64.9357 397.88C60.2052 401.629 45.3863 400.257 39.2835 399.015C33.1812 397.772 19.8133 394.501 21.3833 392.174C22.954 389.847 27.1474 378.113 30.8049 378.212C34.4625 378.311 46.5479 381.224 46.5479 381.224Z" fill="#575A89"/>
<path d="M99.8735 250.958C99.8735 250.958 105.584 290.087 104.253 297.191C102.922 304.293 102.034 315.392 102.034 315.392C102.034 315.392 102.922 324.715 102.034 329.154C101.147 333.593 95.8224 375.768 95.8224 376.656C95.8224 377.543 96.7101 380.207 95.8224 382.427C94.9352 384.647 93.1603 382.871 95.8224 386.422C98.485 389.973 96.7101 390.862 96.2665 390.862C95.8224 390.862 78.5182 392.638 77.6311 390.862C76.7433 389.086 78.0747 388.642 77.6311 386.422C77.1869 384.203 76.7434 383.758 75.8562 383.315C74.9685 382.871 73.1936 383.758 74.5249 381.539C75.8562 379.319 78.9618 376.656 78.0747 375.324C77.1869 373.992 78.5182 364.225 78.5182 364.225C78.5182 364.225 79.4054 342.473 79.8496 329.154C80.2931 315.836 75.8562 302.074 75.8562 302.074C75.3037 312.971 71.2585 323.4 64.3197 331.818C52.7838 345.58 47.0156 371.328 47.0156 371.328C47.0156 371.328 44.3535 375.324 45.6843 378.875C47.0156 382.427 51.0089 380.207 47.0156 382.427C43.0222 384.647 29.2673 381.539 27.9366 380.207C26.6052 378.875 29.7114 377.099 28.8237 373.548C27.9366 369.997 24.3868 370.884 27.493 369.108C30.5986 367.333 31.4857 367.777 31.4857 366.001C31.4857 364.225 39.4725 325.602 51.8961 314.504L52.7838 274.106C52.7838 274.106 41.6909 245.694 53.2274 243.03C64.7633 240.366 99.8735 250.958 99.8735 250.958Z" fill="#2F2E41"/>
<path d="M91.8299 145.808C91.8299 145.808 84.2873 164.453 86.0622 167.117C87.8365 169.78 64.3206 158.238 64.3206 158.238C64.3206 158.238 71.8637 139.593 71.8637 137.373C71.8637 135.153 91.8299 145.808 91.8299 145.808Z" fill="#FFB9B9"/>
<path d="M86.2792 150.469C95.346 150.469 102.696 143.115 102.696 134.043C102.696 124.972 95.346 117.618 86.2792 117.618C77.2125 117.618 69.8622 124.972 69.8622 134.043C69.8622 143.115 77.2125 150.469 86.2792 150.469Z" fill="#FFB9B9"/>
<path d="M64.3175 150.691C64.3175 150.691 75.854 149.359 81.6216 156.462C87.3899 163.565 88.2776 165.341 88.2776 165.341C88.2776 165.341 102.032 187.538 99.3699 198.636C98.721 199.638 98.1285 200.676 97.595 201.744C96.7079 203.52 96.7079 228.38 97.595 232.376C98.4828 236.371 99.3699 237.703 98.4828 243.474C97.595 249.245 105.582 258.568 96.2643 260.344C86.9463 262.12 79.8473 260.788 76.7411 256.792C73.6355 252.797 76.2976 250.133 66.536 250.133C56.775 250.133 50.5631 243.474 50.5631 243.474C50.5631 243.474 55.4436 238.147 53.6688 237.259C51.8939 236.371 53.6688 234.151 54.5559 231.931C55.4437 229.712 55.4436 227.936 54.1123 227.936C52.7816 227.936 53.6688 227.048 54.5559 224.829C55.4437 222.609 39.0267 184.43 48.7883 173.332C58.5493 162.233 63.4304 156.018 63.4304 156.018C63.4304 156.018 61.6555 149.359 64.3175 150.691Z" fill="#2F2E41"/>
<path d="M89.61 192.865V212.398L103.809 259.456C103.809 259.456 113.127 283.872 103.809 283.872C94.4911 283.872 94.9901 260.568 94.9901 260.568L74.968 225.272C74.968 225.272 66.9812 197.305 67.869 195.085C68.7561 192.865 89.61 192.865 89.61 192.865Z" fill="#FFB9B9"/>
<path d="M82.0624 164.009C82.0624 164.009 95.3732 169.336 91.8234 183.542C88.2742 197.748 91.8234 197.305 91.8234 197.305C91.8234 197.305 73.6321 195.529 67.8639 199.524L66.5325 194.197C66.5325 194.197 61.2085 163.565 82.0624 164.009Z" fill="#2F2E41"/>
<path d="M91.886 121.712C92.9107 122.076 94.0098 122.179 95.0839 122.012C96.158 121.844 97.1737 121.412 98.0389 120.754C99.7113 119.376 100.421 116.831 99.4375 114.899C98.5878 113.231 96.7707 112.316 95.0279 111.634C91.184 110.13 87.1353 109.214 83.0181 108.921C81.0557 108.781 78.9938 108.803 77.2421 109.7C76.3758 110.144 75.6232 110.785 74.7647 111.245C73.1862 112.09 71.3494 112.278 69.6442 112.822C67.8991 113.392 66.2969 114.329 64.9453 115.573C63.5943 116.815 62.5256 118.334 61.8117 120.026C61.3479 121.175 61.024 122.375 60.8466 123.602C60.3363 126.959 60.693 130.392 61.882 133.573C63.7736 138.611 67.7401 143.016 67.964 148.394C70.392 146.631 71.2923 143.45 73.238 141.166C74.6855 139.477 76.6628 138.33 78.8461 137.911C79.4511 137.874 80.0316 137.662 80.518 137.301C80.8568 136.896 81.0688 136.401 81.1283 135.876L82.7895 128.028C83.1277 126.431 83.5551 124.689 84.8674 123.719C85.6843 123.196 86.6107 122.87 87.5747 122.765C89.8658 122.364 92.1861 122.152 94.5111 122.131" fill="#2F2E41"/>
<g filter="url(#filter0_i_2_4748)">
<path d="M298.154 133.635L224.457 130.738L209.325 202.96L283.021 205.857L298.154 133.635Z" fill="white"/>
<path d="M230.555 135.347L227.976 135.246L227.447 137.773L230.026 137.874L230.555 135.347Z" fill="black"/>
<path d="M233.136 135.448L230.556 135.347L230.026 137.874L232.606 137.976L233.136 135.448Z" fill="black"/>
<path d="M235.712 135.549L233.132 135.448L232.602 137.976L235.182 138.077L235.712 135.549Z" fill="black"/>
<path d="M238.294 135.651L235.715 135.549L235.185 138.078L237.765 138.179L238.294 135.651Z" fill="black"/>
<path d="M240.87 135.752L238.291 135.651L237.761 138.179L240.341 138.28L240.87 135.752Z" fill="black"/>
<path d="M243.45 135.854L240.871 135.753L240.341 138.28L242.921 138.381L243.45 135.854Z" fill="black"/>
<path d="M246.029 135.955L243.45 135.854L242.92 138.381L245.5 138.483L246.029 135.955Z" fill="black"/>
<path d="M251.188 136.158L248.608 136.056L248.079 138.585L250.658 138.686L251.188 136.158Z" fill="black"/>
<path d="M256.347 136.361L253.768 136.259L253.238 138.787L255.817 138.888L256.347 136.361Z" fill="black"/>
<path d="M261.506 136.563L258.927 136.462L258.397 138.99L260.977 139.091L261.506 136.563Z" fill="black"/>
<path d="M264.089 136.665L261.51 136.563L260.98 139.092L263.56 139.193L264.089 136.665Z" fill="black"/>
<path d="M276.983 137.172L274.404 137.07L273.874 139.598L276.453 139.7L276.983 137.172Z" fill="black"/>
<path d="M279.559 137.274L276.98 137.172L276.45 139.7L279.029 139.801L279.559 137.274Z" fill="black"/>
<path d="M282.141 137.375L279.562 137.273L279.033 139.801L281.612 139.902L282.141 137.375Z" fill="black"/>
<path d="M284.721 137.476L282.142 137.375L281.612 139.902L284.192 140.004L284.721 137.476Z" fill="black"/>
<path d="M287.3 137.578L284.721 137.476L284.192 140.004L286.771 140.106L287.3 137.578Z" fill="black"/>
<path d="M289.88 137.679L287.3 137.577L286.771 140.105L289.35 140.207L289.88 137.679Z" fill="black"/>
<path d="M292.456 137.78L289.876 137.679L289.347 140.207L291.926 140.308L292.456 137.78Z" fill="black"/>
<path d="M230.025 137.874L227.446 137.773L226.916 140.301L229.496 140.402L230.025 137.874Z" fill="black"/>
<path d="M245.502 138.483L242.922 138.381L242.393 140.909L244.972 141.011L245.502 138.483Z" fill="black"/>
<path d="M253.24 138.787L250.661 138.686L250.131 141.213L252.711 141.315L253.24 138.787Z" fill="black"/>
<path d="M255.816 138.888L253.236 138.787L252.707 141.315L255.286 141.416L255.816 138.888Z" fill="black"/>
<path d="M260.978 139.091L258.399 138.99L257.869 141.518L260.449 141.619L260.978 139.091Z" fill="black"/>
<path d="M263.555 139.193L260.975 139.092L260.445 141.619L263.025 141.721L263.555 139.193Z" fill="black"/>
<path d="M271.293 139.497L268.714 139.395L268.184 141.924L270.763 142.025L271.293 139.497Z" fill="black"/>
<path d="M276.452 139.699L273.873 139.598L273.343 142.126L275.922 142.227L276.452 139.699Z" fill="black"/>
<path d="M291.931 140.308L289.352 140.207L288.823 142.734L291.402 142.836L291.931 140.308Z" fill="black"/>
<path d="M229.497 140.402L226.917 140.301L226.388 142.828L228.967 142.93L229.497 140.402Z" fill="black"/>
<path d="M234.653 140.605L232.074 140.503L231.544 143.032L234.123 143.133L234.653 140.605Z" fill="black"/>
<path d="M237.232 140.707L234.653 140.605L234.123 143.133L236.702 143.234L237.232 140.707Z" fill="black"/>
<path d="M239.811 140.808L237.232 140.706L236.703 143.234L239.282 143.335L239.811 140.808Z" fill="black"/>
<path d="M244.97 141.011L242.391 140.909L241.862 143.437L244.441 143.538L244.97 141.011Z" fill="black"/>
<path d="M252.709 141.315L250.13 141.213L249.6 143.741L252.179 143.842L252.709 141.315Z" fill="black"/>
<path d="M263.027 141.72L260.448 141.619L259.918 144.147L262.498 144.248L263.027 141.72Z" fill="black"/>
<path d="M268.185 141.923L265.606 141.821L265.077 144.35L267.656 144.451L268.185 141.923Z" fill="black"/>
<path d="M270.765 142.025L268.186 141.924L267.656 144.451L270.235 144.552L270.765 142.025Z" fill="black"/>
<path d="M275.924 142.227L273.345 142.126L272.815 144.654L275.394 144.755L275.924 142.227Z" fill="black"/>
<path d="M281.08 142.431L278.5 142.329L277.97 144.857L280.55 144.958L281.08 142.431Z" fill="black"/>
<path d="M283.659 142.532L281.08 142.43L280.55 144.958L283.129 145.059L283.659 142.532Z" fill="black"/>
<path d="M286.239 142.633L283.659 142.532L283.129 145.06L285.709 145.161L286.239 142.633Z" fill="black"/>
<path d="M291.397 142.836L288.818 142.734L288.288 145.262L290.868 145.364L291.397 142.836Z" fill="black"/>
<path d="M228.966 142.93L226.387 142.828L225.857 145.357L228.436 145.458L228.966 142.93Z" fill="black"/>
<path d="M234.122 143.133L231.542 143.032L231.013 145.559L233.592 145.661L234.122 143.133Z" fill="black"/>
<path d="M236.705 143.234L234.125 143.133L233.596 145.661L236.175 145.762L236.705 143.234Z" fill="black"/>
<path d="M239.284 143.335L236.704 143.234L236.175 145.762L238.754 145.864L239.284 143.335Z" fill="black"/>
<path d="M244.443 143.538L241.863 143.437L241.334 145.965L243.913 146.066L244.443 143.538Z" fill="black"/>
<path d="M254.757 143.944L252.178 143.843L251.648 146.37L254.228 146.472L254.757 143.944Z" fill="black"/>
<path d="M259.916 144.147L257.337 144.046L256.807 146.573L259.387 146.675L259.916 144.147Z" fill="black"/>
<path d="M262.495 144.248L259.916 144.147L259.387 146.674L261.966 146.776L262.495 144.248Z" fill="black"/>
<path d="M267.651 144.451L265.072 144.35L264.542 146.878L267.121 146.979L267.651 144.451Z" fill="black"/>
<path d="M270.238 144.552L267.658 144.451L267.128 146.979L269.708 147.08L270.238 144.552Z" fill="black"/>
<path d="M275.396 144.755L272.817 144.654L272.287 147.181L274.867 147.283L275.396 144.755Z" fill="black"/>
<path d="M280.551 144.958L277.972 144.857L277.443 147.384L280.022 147.486L280.551 144.958Z" fill="black"/>
<path d="M283.132 145.06L280.552 144.958L280.022 147.486L282.602 147.587L283.132 145.06Z" fill="black"/>
<path d="M285.714 145.161L283.135 145.059L282.605 147.587L285.184 147.688L285.714 145.161Z" fill="black"/>
<path d="M290.87 145.364L288.291 145.262L287.761 147.79L290.34 147.892L290.87 145.364Z" fill="black"/>
<path d="M228.439 145.458L225.86 145.357L225.33 147.884L227.909 147.986L228.439 145.458Z" fill="black"/>
<path d="M233.594 145.66L231.014 145.559L230.485 148.087L233.064 148.188L233.594 145.66Z" fill="black"/>
<path d="M236.173 145.762L233.594 145.66L233.064 148.189L235.644 148.29L236.173 145.762Z" fill="black"/>
<path d="M238.75 145.864L236.17 145.762L235.64 148.29L238.22 148.391L238.75 145.864Z" fill="black"/>
<path d="M243.909 146.066L241.329 145.965L240.799 148.493L243.379 148.594L243.909 146.066Z" fill="black"/>
<path d="M264.544 146.878L261.965 146.776L261.435 149.304L264.014 149.405L264.544 146.878Z" fill="black"/>
<path d="M269.703 147.08L267.124 146.979L266.594 149.506L269.174 149.608L269.703 147.08Z" fill="black"/>
<path d="M274.865 147.283L272.286 147.181L271.756 149.709L274.336 149.811L274.865 147.283Z" fill="black"/>
<path d="M280.021 147.486L277.442 147.384L276.912 149.912L279.491 150.013L280.021 147.486Z" fill="black"/>
<path d="M282.597 147.587L280.018 147.486L279.488 150.014L282.067 150.115L282.597 147.587Z" fill="black"/>
<path d="M285.179 147.688L282.6 147.587L282.071 150.115L284.65 150.217L285.179 147.688Z" fill="black"/>
<path d="M290.342 147.891L287.762 147.79L287.233 150.318L289.812 150.419L290.342 147.891Z" fill="black"/>
<path d="M227.908 147.986L225.328 147.884L224.798 150.412L227.378 150.513L227.908 147.986Z" fill="black"/>
<path d="M243.384 148.594L240.805 148.493L240.275 151.02L242.854 151.122L243.384 148.594Z" fill="black"/>
<path d="M251.123 148.898L248.543 148.797L248.014 151.324L250.593 151.426L251.123 148.898Z" fill="black"/>
<path d="M256.278 149.101L253.699 149L253.169 151.527L255.748 151.629L256.278 149.101Z" fill="black"/>
<path d="M269.176 149.608L266.596 149.506L266.066 152.034L268.646 152.136L269.176 149.608Z" fill="black"/>
<path d="M274.334 149.811L271.755 149.71L271.225 152.237L273.805 152.339L274.334 149.811Z" fill="black"/>
<path d="M289.811 150.419L287.232 150.318L286.702 152.845L289.281 152.947L289.811 150.419Z" fill="black"/>
<path d="M227.377 150.513L224.797 150.412L224.267 152.94L226.847 153.042L227.377 150.513Z" fill="black"/>
<path d="M229.955 150.614L227.376 150.513L226.847 153.041L229.426 153.143L229.955 150.614Z" fill="black"/>
<path d="M232.535 150.716L229.956 150.615L229.426 153.143L232.006 153.244L232.535 150.716Z" fill="black"/>
<path d="M235.111 150.818L232.532 150.716L232.002 153.244L234.581 153.345L235.111 150.818Z" fill="black"/>
<path d="M237.694 150.919L235.115 150.818L234.585 153.345L237.164 153.447L237.694 150.919Z" fill="black"/>
<path d="M240.274 151.02L237.695 150.919L237.165 153.447L239.744 153.548L240.274 151.02Z" fill="black"/>
<path d="M242.853 151.121L240.274 151.02L239.744 153.548L242.323 153.65L242.853 151.121Z" fill="black"/>
<path d="M248.012 151.325L245.432 151.223L244.903 153.751L247.482 153.852L248.012 151.325Z" fill="black"/>
<path d="M253.171 151.527L250.591 151.426L250.062 153.953L252.641 154.055L253.171 151.527Z" fill="black"/>
<path d="M258.33 151.73L255.751 151.629L255.221 154.157L257.8 154.258L258.33 151.73Z" fill="black"/>
<path d="M263.486 151.933L260.906 151.832L260.376 154.359L262.956 154.461L263.486 151.933Z" fill="black"/>
<path d="M268.644 152.136L266.065 152.034L265.535 154.562L268.115 154.664L268.644 152.136Z" fill="black"/>
<path d="M273.803 152.338L271.224 152.237L270.694 154.765L273.274 154.866L273.803 152.338Z" fill="black"/>
<path d="M276.383 152.44L273.803 152.339L273.274 154.866L275.853 154.967L276.383 152.44Z" fill="black"/>
<path d="M278.966 152.541L276.387 152.44L275.857 154.967L278.436 155.069L278.966 152.541Z" fill="black"/>
<path d="M281.542 152.643L278.963 152.541L278.433 155.069L281.012 155.171L281.542 152.643Z" fill="black"/>
<path d="M284.125 152.744L281.545 152.643L281.016 155.171L283.595 155.272L284.125 152.744Z" fill="black"/>
<path d="M286.7 152.846L284.121 152.744L283.591 155.272L286.171 155.373L286.7 152.846Z" fill="black"/>
<path d="M289.283 152.947L286.704 152.845L286.174 155.373L288.754 155.474L289.283 152.947Z" fill="black"/>
<path d="M247.481 153.852L244.902 153.751L244.372 156.279L246.951 156.38L247.481 153.852Z" fill="black"/>
<path d="M250.061 153.954L247.481 153.852L246.951 156.38L249.531 156.482L250.061 153.954Z" fill="black"/>
<path d="M257.798 154.258L255.219 154.157L254.69 156.684L257.269 156.785L257.798 154.258Z" fill="black"/>
<path d="M260.382 154.359L257.802 154.258L257.273 156.786L259.852 156.887L260.382 154.359Z" fill="black"/>
<path d="M265.541 154.562L262.961 154.46L262.432 156.989L265.011 157.09L265.541 154.562Z" fill="black"/>
<path d="M268.117 154.664L265.538 154.562L265.008 157.09L267.587 157.191L268.117 154.664Z" fill="black"/>
<path d="M226.314 155.569L223.735 155.468L223.205 157.995L225.785 158.097L226.314 155.569Z" fill="black"/>
<path d="M228.897 155.67L226.318 155.569L225.788 158.097L228.368 158.198L228.897 155.67Z" fill="black"/>
<path d="M234.056 155.873L231.476 155.772L230.947 158.299L233.526 158.401L234.056 155.873Z" fill="black"/>
<path d="M236.639 155.975L234.06 155.873L233.53 158.401L236.109 158.502L236.639 155.975Z" fill="black"/>
<path d="M241.791 156.177L239.212 156.076L238.682 158.604L241.261 158.705L241.791 156.177Z" fill="black"/>
<path d="M249.533 156.482L246.954 156.38L246.424 158.908L249.003 159.009L249.533 156.482Z" fill="black"/>
<path d="M254.688 156.684L252.109 156.583L251.579 159.111L254.159 159.212L254.688 156.684Z" fill="black"/>
<path d="M257.267 156.786L254.688 156.684L254.159 159.212L256.738 159.314L257.267 156.786Z" fill="black"/>
<path d="M262.427 156.989L259.848 156.888L259.318 159.415L261.897 159.517L262.427 156.989Z" fill="black"/>
<path d="M265.006 157.09L262.427 156.989L261.897 159.516L264.476 159.618L265.006 157.09Z" fill="black"/>
<path d="M272.744 157.394L270.165 157.293L269.636 159.821L272.215 159.922L272.744 157.394Z" fill="black"/>
<path d="M288.222 158.003L285.642 157.901L285.112 160.429L287.692 160.53L288.222 158.003Z" fill="black"/>
<path d="M228.366 158.198L225.787 158.097L225.257 160.624L227.836 160.726L228.366 158.198Z" fill="black"/>
<path d="M233.525 158.401L230.946 158.299L230.416 160.827L232.995 160.929L233.525 158.401Z" fill="black"/>
<path d="M246.426 158.908L243.846 158.806L243.317 161.334L245.896 161.436L246.426 158.908Z" fill="black"/>
<path d="M251.585 159.111L249.006 159.009L248.476 161.537L251.055 161.638L251.585 159.111Z" fill="black"/>
<path d="M254.161 159.212L251.582 159.111L251.052 161.638L253.631 161.74L254.161 159.212Z" fill="black"/>
<path d="M264.479 159.618L261.899 159.516L261.37 162.044L263.949 162.145L264.479 159.618Z" fill="black"/>
<path d="M274.793 160.023L272.214 159.922L271.684 162.45L274.263 162.551L274.793 160.023Z" fill="black"/>
<path d="M277.372 160.125L274.793 160.023L274.263 162.551L276.843 162.653L277.372 160.125Z" fill="black"/>
<path d="M279.955 160.226L277.376 160.125L276.846 162.652L279.426 162.754L279.955 160.226Z" fill="black"/>
<path d="M282.531 160.328L279.952 160.226L279.422 162.754L282.002 162.855L282.531 160.328Z" fill="black"/>
<path d="M285.114 160.429L282.535 160.328L282.005 162.855L284.585 162.957L285.114 160.429Z" fill="black"/>
<path d="M225.259 160.624L222.68 160.523L222.15 163.051L224.729 163.152L225.259 160.624Z" fill="black"/>
<path d="M227.838 160.726L225.259 160.624L224.729 163.152L227.309 163.254L227.838 160.726Z" fill="black"/>
<path d="M230.418 160.828L227.838 160.726L227.309 163.254L229.888 163.355L230.418 160.828Z" fill="black"/>
<path d="M235.577 161.03L232.997 160.929L232.468 163.456L235.047 163.558L235.577 161.03Z" fill="black"/>
<path d="M240.733 161.233L238.153 161.131L237.623 163.659L240.203 163.761L240.733 161.233Z" fill="black"/>
<path d="M248.47 161.537L245.891 161.436L245.362 163.963L247.941 164.065L248.47 161.537Z" fill="black"/>
<path d="M253.629 161.74L251.05 161.638L250.521 164.166L253.1 164.268L253.629 161.74Z" fill="black"/>
<path d="M256.213 161.842L253.633 161.74L253.104 164.268L255.683 164.369L256.213 161.842Z" fill="black"/>
<path d="M263.948 162.145L261.368 162.044L260.839 164.572L263.418 164.673L263.948 162.145Z" fill="black"/>
<path d="M271.685 162.45L269.106 162.348L268.577 164.876L271.156 164.977L271.685 162.45Z" fill="black"/>
<path d="M274.266 162.551L271.686 162.45L271.156 164.977L273.736 165.079L274.266 162.551Z" fill="black"/>
<path d="M276.845 162.652L274.265 162.551L273.736 165.079L276.315 165.18L276.845 162.652Z" fill="black"/>
<path d="M279.424 162.754L276.845 162.652L276.315 165.181L278.894 165.282L279.424 162.754Z" fill="black"/>
<path d="M287.163 163.058L284.584 162.957L284.054 165.484L286.634 165.585L287.163 163.058Z" fill="black"/>
<path d="M224.728 163.152L222.148 163.051L221.619 165.578L224.198 165.68L224.728 163.152Z" fill="black"/>
<path d="M235.043 163.558L232.463 163.457L231.933 165.984L234.513 166.086L235.043 163.558Z" fill="black"/>
<path d="M237.625 163.66L235.046 163.558L234.516 166.086L237.095 166.187L237.625 163.66Z" fill="black"/>
<path d="M245.364 163.963L242.784 163.862L242.255 166.39L244.834 166.491L245.364 163.963Z" fill="black"/>
<path d="M263.42 164.674L260.84 164.572L260.311 167.1L262.89 167.201L263.42 164.674Z" fill="black"/>
<path d="M271.155 164.977L268.576 164.876L268.046 167.404L270.625 167.505L271.155 164.977Z" fill="black"/>
<path d="M273.731 165.079L271.152 164.977L270.622 167.505L273.202 167.607L273.731 165.079Z" fill="black"/>
<path d="M276.314 165.18L273.735 165.079L273.205 167.607L275.785 167.708L276.314 165.18Z" fill="black"/>
<path d="M278.893 165.282L276.314 165.181L275.784 167.708L278.363 167.81L278.893 165.282Z" fill="black"/>
<path d="M281.476 165.383L278.896 165.282L278.367 167.809L280.946 167.911L281.476 165.383Z" fill="black"/>
<path d="M284.055 165.484L281.476 165.383L280.947 167.911L283.526 168.012L284.055 165.484Z" fill="black"/>
<path d="M286.632 165.586L284.052 165.484L283.523 168.013L286.102 168.114L286.632 165.586Z" fill="black"/>
<path d="M229.356 165.883L226.777 165.781L226.247 168.309L228.826 168.41L229.356 165.883Z" fill="black"/>
<path d="M234.518 166.086L231.938 165.984L231.409 168.512L233.988 168.614L234.518 166.086Z" fill="black"/>
<path d="M239.677 166.289L237.098 166.187L236.568 168.715L239.147 168.816L239.677 166.289Z" fill="black"/>
<path d="M247.412 166.593L244.832 166.491L244.303 169.019L246.882 169.121L247.412 166.593Z" fill="black"/>
<path d="M249.988 166.694L247.408 166.593L246.879 169.121L249.458 169.222L249.988 166.694Z" fill="black"/>
<path d="M255.151 166.897L252.571 166.795L252.041 169.323L254.621 169.424L255.151 166.897Z" fill="black"/>
<path d="M265.468 167.302L262.889 167.201L262.359 169.729L264.939 169.83L265.468 167.302Z" fill="black"/>
<path d="M270.627 167.506L268.048 167.404L267.518 169.932L270.097 170.033L270.627 167.506Z" fill="black"/>
<path d="M273.206 167.607L270.627 167.505L270.098 170.033L272.677 170.134L273.206 167.607Z" fill="black"/>
<path d="M286.101 168.114L283.521 168.012L282.992 170.54L285.571 170.641L286.101 168.114Z" fill="black"/>
<path d="M223.669 168.208L221.09 168.107L220.56 170.634L223.14 170.736L223.669 168.208Z" fill="black"/>
<path d="M231.408 168.512L228.828 168.411L228.299 170.939L230.878 171.04L231.408 168.512Z" fill="black"/>
<path d="M233.987 168.614L231.408 168.512L230.878 171.04L233.457 171.141L233.987 168.614Z" fill="black"/>
<path d="M244.305 169.019L241.725 168.917L241.196 171.445L243.775 171.547L244.305 169.019Z" fill="black"/>
<path d="M246.881 169.121L244.301 169.019L243.772 171.547L246.351 171.648L246.881 169.121Z" fill="black"/>
<path d="M249.464 169.222L246.884 169.12L246.355 171.648L248.934 171.749L249.464 169.222Z" fill="black"/>
<path d="M252.04 169.323L249.46 169.222L248.931 171.749L251.51 171.851L252.04 169.323Z" fill="black"/>
<path d="M254.623 169.425L252.044 169.323L251.514 171.851L254.093 171.953L254.623 169.425Z" fill="black"/>
<path d="M259.778 169.628L257.199 169.526L256.669 172.054L259.249 172.155L259.778 169.628Z" fill="black"/>
<path d="M262.357 169.729L259.778 169.628L259.249 172.155L261.828 172.256L262.357 169.729Z" fill="black"/>
<path d="M264.937 169.83L262.357 169.729L261.828 172.256L264.407 172.358L264.937 169.83Z" fill="black"/>
<path d="M267.517 169.931L264.937 169.83L264.408 172.358L266.987 172.459L267.517 169.931Z" fill="black"/>
<path d="M275.259 170.236L272.679 170.135L272.15 172.662L274.729 172.763L275.259 170.236Z" fill="black"/>
<path d="M282.996 170.54L280.417 170.439L279.888 172.966L282.467 173.068L282.996 170.54Z" fill="black"/>
<path d="M223.138 170.735L220.559 170.634L220.029 173.162L222.608 173.263L223.138 170.735Z" fill="black"/>
<path d="M225.721 170.837L223.142 170.736L222.612 173.263L225.191 173.365L225.721 170.837Z" fill="black"/>
<path d="M233.456 171.141L230.876 171.04L230.347 173.568L232.926 173.669L233.456 171.141Z" fill="black"/>
<path d="M236.036 171.242L233.456 171.141L232.927 173.669L235.506 173.77L236.036 171.242Z" fill="black"/>
<path d="M238.615 171.344L236.035 171.242L235.506 173.77L238.085 173.872L238.615 171.344Z" fill="black"/>
<path d="M241.195 171.446L238.615 171.344L238.085 173.872L240.665 173.973L241.195 171.446Z" fill="black"/>
<path d="M246.357 171.648L243.778 171.547L243.248 174.075L245.827 174.176L246.357 171.648Z" fill="black"/>
<path d="M248.933 171.749L246.354 171.648L245.824 174.176L248.403 174.277L248.933 171.749Z" fill="black"/>
<path d="M256.674 172.054L254.095 171.952L253.566 174.48L256.145 174.581L256.674 172.054Z" fill="black"/>
<path d="M261.827 172.256L259.247 172.155L258.718 174.683L261.297 174.784L261.827 172.256Z" fill="black"/>
<path d="M269.569 172.561L266.989 172.459L266.46 174.987L269.039 175.088L269.569 172.561Z" fill="black"/>
<path d="M277.303 172.865L274.724 172.763L274.194 175.291L276.774 175.393L277.303 172.865Z" fill="black"/>
<path d="M279.883 172.967L277.303 172.865L276.774 175.393L279.353 175.494L279.883 172.967Z" fill="black"/>
<path d="M282.463 173.068L279.883 172.966L279.353 175.494L281.933 175.595L282.463 173.068Z" fill="black"/>
<path d="M285.046 173.169L282.466 173.068L281.936 175.595L284.516 175.697L285.046 173.169Z" fill="black"/>
<path d="M222.614 173.263L220.034 173.162L219.505 175.689L222.084 175.791L222.614 173.263Z" fill="black"/>
<path d="M227.773 173.466L225.193 173.365L224.664 175.893L227.243 175.994L227.773 173.466Z" fill="black"/>
<path d="M232.925 173.669L230.346 173.568L229.816 176.095L232.395 176.197L232.925 173.669Z" fill="black"/>
<path d="M240.667 173.973L238.088 173.872L237.558 176.4L240.138 176.501L240.667 173.973Z" fill="black"/>
<path d="M243.242 174.075L240.663 173.973L240.134 176.501L242.713 176.602L243.242 174.075Z" fill="black"/>
<path d="M245.822 174.176L243.243 174.075L242.713 176.602L245.293 176.704L245.822 174.176Z" fill="black"/>
<path d="M248.402 174.277L245.822 174.176L245.293 176.704L247.872 176.805L248.402 174.277Z" fill="black"/>
<path d="M253.561 174.48L250.982 174.379L250.452 176.906L253.031 177.008L253.561 174.48Z" fill="black"/>
<path d="M263.878 174.886L261.299 174.784L260.769 177.312L263.349 177.414L263.878 174.886Z" fill="black"/>
<path d="M274.2 175.292L271.62 175.19L271.091 177.718L273.67 177.819L274.2 175.292Z" fill="black"/>
<path d="M279.356 175.494L276.776 175.393L276.246 177.921L278.826 178.022L279.356 175.494Z" fill="black"/>
<path d="M284.514 175.697L281.934 175.595L281.405 178.123L283.984 178.225L284.514 175.697Z" fill="black"/>
<path d="M222.08 175.792L219.5 175.69L218.971 178.218L221.55 178.319L222.08 175.792Z" fill="black"/>
<path d="M229.815 176.095L227.235 175.994L226.705 178.522L229.285 178.623L229.815 176.095Z" fill="black"/>
<path d="M232.397 176.196L229.818 176.095L229.288 178.623L231.868 178.725L232.397 176.196Z" fill="black"/>
<path d="M234.973 176.299L232.394 176.197L231.864 178.725L234.444 178.826L234.973 176.299Z" fill="black"/>
<path d="M237.556 176.4L234.977 176.298L234.447 178.826L237.027 178.927L237.556 176.4Z" fill="black"/>
<path d="M255.612 177.109L253.033 177.008L252.504 179.536L255.083 179.638L255.612 177.109Z" fill="black"/>
<path d="M263.348 177.414L260.768 177.312L260.238 179.84L262.818 179.941L263.348 177.414Z" fill="black"/>
<path d="M265.927 177.515L263.348 177.414L262.818 179.941L265.398 180.042L265.927 177.515Z" fill="black"/>
<path d="M268.507 177.616L265.927 177.515L265.397 180.042L267.977 180.144L268.507 177.616Z" fill="black"/>
<path d="M271.089 177.718L268.51 177.616L267.98 180.144L270.56 180.246L271.089 177.718Z" fill="black"/>
<path d="M273.665 177.819L271.086 177.717L270.556 180.246L273.136 180.347L273.665 177.819Z" fill="black"/>
<path d="M278.824 178.022L276.245 177.921L275.715 180.448L278.294 180.55L278.824 178.022Z" fill="black"/>
<path d="M281.407 178.123L278.828 178.022L278.298 180.549L280.877 180.651L281.407 178.123Z" fill="black"/>
<path d="M242.184 179.13L239.605 179.028L239.075 181.556L241.655 181.658L242.184 179.13Z" fill="black"/>
<path d="M244.763 179.232L242.184 179.131L241.655 181.658L244.234 181.759L244.763 179.232Z" fill="black"/>
<path d="M247.343 179.333L244.763 179.232L244.234 181.759L246.813 181.861L247.343 179.333Z" fill="black"/>
<path d="M255.082 179.637L252.502 179.535L251.972 182.064L254.552 182.165L255.082 179.637Z" fill="black"/>
<path d="M262.82 179.941L260.241 179.84L259.711 182.367L262.291 182.469L262.82 179.941Z" fill="black"/>
<path d="M273.141 180.347L270.562 180.246L270.032 182.773L272.611 182.874L273.141 180.347Z" fill="black"/>
<path d="M280.873 180.651L278.294 180.549L277.764 183.077L280.343 183.179L280.873 180.651Z" fill="black"/>
<path d="M221.018 180.847L218.438 180.745L217.908 183.273L220.488 183.374L221.018 180.847Z" fill="black"/>
<path d="M223.6 180.948L221.021 180.847L220.491 183.375L223.071 183.476L223.6 180.948Z" fill="black"/>
<path d="M226.176 181.049L223.597 180.948L223.067 183.475L225.647 183.577L226.176 181.049Z" fill="black"/>
<path d="M228.759 181.151L226.18 181.049L225.65 183.578L228.23 183.679L228.759 181.151Z" fill="black"/>
<path d="M231.335 181.252L228.756 181.151L228.226 183.679L230.806 183.78L231.335 181.252Z" fill="black"/>
<path d="M233.918 181.354L231.339 181.252L230.809 183.78L233.389 183.881L233.918 181.354Z" fill="black"/>
<path d="M236.497 181.455L233.918 181.354L233.389 183.881L235.968 183.983L236.497 181.455Z" fill="black"/>
<path d="M244.236 181.759L241.657 181.658L241.127 184.186L243.706 184.287L244.236 181.759Z" fill="black"/>
<path d="M246.816 181.861L244.236 181.759L243.706 184.287L246.286 184.388L246.816 181.861Z" fill="black"/>
<path d="M249.395 181.962L246.816 181.861L246.286 184.388L248.865 184.49L249.395 181.962Z" fill="black"/>
<path d="M262.288 182.469L259.709 182.368L259.18 184.895L261.759 184.997L262.288 182.469Z" fill="black"/>
<path d="M267.448 182.672L264.869 182.571L264.339 185.098L266.918 185.2L267.448 182.672Z" fill="black"/>
<path d="M272.61 182.875L270.031 182.773L269.501 185.301L272.081 185.402L272.61 182.875Z" fill="black"/>
<path d="M275.186 182.976L272.607 182.874L272.077 185.402L274.657 185.504L275.186 182.976Z" fill="black"/>
<path d="M282.925 183.28L280.345 183.179L279.815 185.707L282.395 185.808L282.925 183.28Z" fill="black"/>
<path d="M220.49 183.374L217.911 183.273L217.381 185.801L219.961 185.903L220.49 183.374Z" fill="black"/>
<path d="M235.963 183.983L233.384 183.881L232.854 186.409L235.433 186.511L235.963 183.983Z" fill="black"/>
<path d="M246.281 184.388L243.701 184.287L243.172 186.815L245.751 186.916L246.281 184.388Z" fill="black"/>
<path d="M254.023 184.693L251.444 184.591L250.914 187.119L253.493 187.22L254.023 184.693Z" fill="black"/>
<path d="M259.182 184.895L256.603 184.794L256.073 187.322L258.652 187.424L259.182 184.895Z" fill="black"/>
<path d="M261.758 184.997L259.179 184.895L258.649 187.423L261.229 187.525L261.758 184.997Z" fill="black"/>
<path d="M272.076 185.403L269.496 185.301L268.967 187.829L271.546 187.931L272.076 185.403Z" fill="black"/>
<path d="M219.962 185.902L217.382 185.801L216.853 188.328L219.432 188.43L219.962 185.902Z" fill="black"/>
<path d="M225.121 186.105L222.541 186.004L222.012 188.532L224.591 188.633L225.121 186.105Z" fill="black"/>
<path d="M227.701 186.206L225.121 186.105L224.592 188.633L227.171 188.734L227.701 186.206Z" fill="black"/>
<path d="M230.28 186.308L227.701 186.206L227.171 188.734L229.751 188.836L230.28 186.308Z" fill="black"/>
<path d="M235.436 186.511L232.856 186.41L232.327 188.937L234.906 189.038L235.436 186.511Z" fill="black"/>
<path d="M240.597 186.713L238.018 186.612L237.489 189.14L240.068 189.241L240.597 186.713Z" fill="black"/>
<path d="M243.174 186.815L240.595 186.713L240.065 189.241L242.644 189.343L243.174 186.815Z" fill="black"/>
<path d="M248.333 187.018L245.754 186.917L245.224 189.444L247.803 189.545L248.333 187.018Z" fill="black"/>
<path d="M250.912 187.119L248.333 187.018L247.803 189.545L250.383 189.647L250.912 187.119Z" fill="black"/>
<path d="M256.071 187.322L253.491 187.22L252.962 189.748L255.541 189.85L256.071 187.322Z" fill="black"/>
<path d="M258.65 187.424L256.071 187.322L255.542 189.85L258.121 189.951L258.65 187.424Z" fill="black"/>
<path d="M261.23 187.525L258.65 187.424L258.121 189.951L260.7 190.052L261.23 187.525Z" fill="black"/>
<path d="M263.81 187.626L261.23 187.525L260.701 190.052L263.28 190.154L263.81 187.626Z" fill="black"/>
<path d="M266.393 187.727L263.813 187.626L263.283 190.154L265.863 190.255L266.393 187.727Z" fill="black"/>
<path d="M268.969 187.829L266.389 187.727L265.86 190.256L268.439 190.357L268.969 187.829Z" fill="black"/>
<path d="M271.551 187.93L268.972 187.828L268.442 190.357L271.022 190.458L271.551 187.93Z" fill="black"/>
<path d="M274.131 188.032L271.551 187.93L271.022 190.458L273.601 190.559L274.131 188.032Z" fill="black"/>
<path d="M279.29 188.234L276.71 188.133L276.181 190.661L278.76 190.763L279.29 188.234Z" fill="black"/>
<path d="M219.431 188.43L216.852 188.329L216.322 190.857L218.902 190.958L219.431 188.43Z" fill="black"/>
<path d="M224.586 188.633L222.007 188.532L221.478 191.059L224.057 191.16L224.586 188.633Z" fill="black"/>
<path d="M227.169 188.734L224.59 188.633L224.061 191.16L226.64 191.262L227.169 188.734Z" fill="black"/>
<path d="M229.749 188.836L227.17 188.734L226.64 191.262L229.219 191.363L229.749 188.836Z" fill="black"/>
<path d="M234.905 189.038L232.325 188.937L231.795 191.465L234.375 191.566L234.905 189.038Z" fill="black"/>
<path d="M240.067 189.241L237.488 189.14L236.958 191.667L239.537 191.769L240.067 189.241Z" fill="black"/>
<path d="M247.808 189.545L245.229 189.444L244.7 191.972L247.279 192.073L247.808 189.545Z" fill="black"/>
<path d="M252.961 189.748L250.382 189.647L249.852 192.174L252.431 192.276L252.961 189.748Z" fill="black"/>
<path d="M255.544 189.85L252.964 189.749L252.434 192.276L255.014 192.378L255.544 189.85Z" fill="black"/>
<path d="M258.12 189.951L255.541 189.85L255.011 192.377L257.59 192.479L258.12 189.951Z" fill="black"/>
<path d="M260.703 190.052L258.123 189.951L257.593 192.479L260.173 192.58L260.703 190.052Z" fill="black"/>
<path d="M263.282 190.154L260.703 190.053L260.173 192.58L262.753 192.682L263.282 190.154Z" fill="black"/>
<path d="M265.861 190.255L263.282 190.154L262.752 192.682L265.332 192.783L265.861 190.255Z" fill="black"/>
<path d="M273.597 190.559L271.017 190.458L270.487 192.986L273.067 193.087L273.597 190.559Z" fill="black"/>
<path d="M278.755 190.763L276.176 190.661L275.646 193.189L278.225 193.29L278.755 190.763Z" fill="black"/>
<path d="M281.338 190.864L278.759 190.762L278.229 193.29L280.808 193.391L281.338 190.864Z" fill="black"/>
<path d="M218.907 190.958L216.328 190.857L215.798 193.384L218.378 193.485L218.907 190.958Z" fill="black"/>
<path d="M224.065 191.16L221.486 191.059L220.957 193.587L223.536 193.689L224.065 191.16Z" fill="black"/>
<path d="M226.642 191.262L224.062 191.161L223.533 193.689L226.112 193.79L226.642 191.262Z" fill="black"/>
<path d="M229.218 191.364L226.639 191.262L226.109 193.79L228.688 193.891L229.218 191.364Z" fill="black"/>
<path d="M234.377 191.566L231.798 191.465L231.268 193.992L233.848 194.094L234.377 191.566Z" fill="black"/>
<path d="M244.694 191.972L242.115 191.87L241.586 194.398L244.165 194.499L244.694 191.972Z" fill="black"/>
<path d="M247.274 192.073L244.695 191.972L244.165 194.499L246.744 194.601L247.274 192.073Z" fill="black"/>
<path d="M249.854 192.174L247.274 192.073L246.745 194.601L249.324 194.703L249.854 192.174Z" fill="black"/>
<path d="M252.433 192.276L249.854 192.175L249.324 194.702L251.903 194.804L252.433 192.276Z" fill="black"/>
<path d="M257.595 192.479L255.016 192.378L254.486 194.905L257.066 195.006L257.595 192.479Z" fill="black"/>
<path d="M267.91 192.884L265.331 192.783L264.801 195.311L267.38 195.412L267.91 192.884Z" fill="black"/>
<path d="M270.489 192.986L267.91 192.884L267.38 195.412L269.96 195.513L270.489 192.986Z" fill="black"/>
<path d="M275.648 193.189L273.068 193.087L272.539 195.615L275.118 195.716L275.648 193.189Z" fill="black"/>
<path d="M278.231 193.29L275.651 193.189L275.122 195.717L277.701 195.818L278.231 193.29Z" fill="black"/>
<path d="M280.807 193.391L278.227 193.29L277.698 195.818L280.277 195.919L280.807 193.391Z" fill="black"/>
<path d="M218.373 193.485L215.793 193.384L215.263 195.912L217.843 196.013L218.373 193.485Z" fill="black"/>
<path d="M233.852 194.094L231.273 193.992L230.744 196.521L233.323 196.622L233.852 194.094Z" fill="black"/>
<path d="M239.008 194.297L236.429 194.196L235.899 196.723L238.478 196.825L239.008 194.297Z" fill="black"/>
<path d="M244.167 194.499L241.588 194.398L241.058 196.926L243.638 197.028L244.167 194.499Z" fill="black"/>
<path d="M264.799 195.311L262.22 195.21L261.69 197.737L264.27 197.838L264.799 195.311Z" fill="black"/>
<path d="M267.378 195.412L264.799 195.311L264.27 197.838L266.849 197.94L267.378 195.412Z" fill="black"/>
<path d="M269.954 195.513L267.375 195.412L266.846 197.939L269.425 198.041L269.954 195.513Z" fill="black"/>
<path d="M275.117 195.717L272.538 195.615L272.008 198.143L274.587 198.244L275.117 195.717Z" fill="black"/>
<path d="M277.7 195.818L275.121 195.716L274.591 198.244L277.17 198.345L277.7 195.818Z" fill="black"/>
<path d="M280.28 195.919L277.7 195.818L277.17 198.345L279.75 198.447L280.28 195.919Z" fill="black"/>
<path d="M217.845 196.013L215.266 195.912L214.736 198.44L217.316 198.541L217.845 196.013Z" fill="black"/>
<path d="M220.424 196.115L217.845 196.013L217.315 198.541L219.895 198.643L220.424 196.115Z" fill="black"/>
<path d="M223.004 196.216L220.425 196.115L219.895 198.643L222.474 198.744L223.004 196.216Z" fill="black"/>
<path d="M225.577 196.317L222.997 196.216L222.467 198.744L225.047 198.845L225.577 196.317Z" fill="black"/>
<path d="M228.159 196.419L225.58 196.318L225.05 198.845L227.629 198.947L228.159 196.419Z" fill="black"/>
<path d="M230.739 196.52L228.16 196.419L227.63 198.947L230.209 199.048L230.739 196.52Z" fill="black"/>
<path d="M233.318 196.622L230.738 196.52L230.209 199.048L232.788 199.15L233.318 196.622Z" fill="black"/>
<path d="M238.477 196.824L235.897 196.723L235.368 199.251L237.947 199.352L238.477 196.824Z" fill="black"/>
<path d="M241.053 196.926L238.473 196.824L237.944 199.352L240.523 199.454L241.053 196.926Z" fill="black"/>
<path d="M243.636 197.027L241.057 196.926L240.527 199.454L243.106 199.555L243.636 197.027Z" fill="black"/>
<path d="M248.799 197.23L246.219 197.129L245.689 199.657L248.269 199.758L248.799 197.23Z" fill="black"/>
<path d="M253.954 197.433L251.375 197.331L250.845 199.859L253.424 199.961L253.954 197.433Z" fill="black"/>
<path d="M259.112 197.636L256.533 197.534L256.004 200.062L258.583 200.163L259.112 197.636Z" fill="black"/>
<path d="M261.692 197.737L259.112 197.636L258.583 200.163L261.162 200.265L261.692 197.737Z" fill="black"/>
<path d="M264.271 197.838L261.692 197.737L261.163 200.265L263.742 200.366L264.271 197.838Z" fill="black"/>
<path d="M272.007 198.143L269.428 198.042L268.898 200.569L271.477 200.671L272.007 198.143Z" fill="black"/>
<path d="M279.745 198.446L277.165 198.345L276.636 200.873L279.215 200.975L279.745 198.446Z" fill="black"/>
<path d="M231.084 122.261L217.432 121.724L214.629 135.103" stroke="#024055" stroke-width="0.521147"/>
<path d="M294.792 124.765L308.444 125.302L305.641 138.681" stroke="#024055" stroke-width="0.521147"/>
<path d="M212.17 212.538L198.518 212.002L201.321 198.622" stroke="#024055" stroke-width="0.521147"/>
<path d="M275.877 215.043L289.529 215.58L292.333 202.2" stroke="#024055" stroke-width="0.521147"/>
</g>
</g>
<defs>
<filter id="filter0_i_2_4748" x="198.199" y="121.455" width="110.563" height="95.0886" filterUnits="userSpaceOnUse" color-interpolation-filters="sRGB">
<feFlood flood-opacity="0" result="BackgroundImageFix"/>
<feBlend mode="normal" in="SourceGraphic" in2="BackgroundImageFix" result="shape"/>
<feColorMatrix in="SourceAlpha" type="matrix" values="0 0 0 0 0 0 0 0 0 0 0 0 0 0 0 0 0 0 127 0" result="hardAlpha"/>
<feOffset dy="0.694863"/>
<feGaussianBlur stdDeviation="0.347431"/>
<feComposite in2="hardAlpha" operator="arithmetic" k2="-1" k3="1"/>
<feColorMatrix type="matrix" values="0 0 0 0 0 0 0 0 0 0 0 0 0 0 0 0 0 0 0.25 0"/>
<feBlend mode="normal" in2="shape" result="effect1_innerShadow_2_4748"/>
</filter>
<clipPath id="clip0_2_4748">
<rect width="715.076" height="408.664" fill="white" transform="translate(-170)"/>
</clipPath>
</defs>
</svg>
